<?xml version="1.0" encoding="utf-8"?>

<!DOCTYPE svg PUBLIC "-//W3C//DTD SVG 1.1//EN" "http://www.w3.org/Graphics/SVG/1.1/DTD/svg11.dtd">
<svg version="1.1" id="Layer_1" xmlns="http://www.w3.org/2000/svg" xmlns:xlink="http://www.w3.org/1999/xlink" x="0px" y="0px"
	 width="271px" height="16px" viewBox="0 0 271 16" enable-background="new 0 0 271 16" xml:space="preserve" shape-rendering="crispEdges">
<g>
	<polygon fill="#FFFFFF" points="221,10 221,14 220,14 220,16 218,16 218,14 219,14 219,10 	"/>
	<polygon fill="#FFFFFF" points="197,12 197,14 193,14 193,12 194,12 194,6 193,6 193,4 196,4 196,12 	"/>
	<path fill="#FFFFFF" d="M247,2V0h-5v2h-1v10h1v2h5v-2h1V2H247z M246,12h-2v-2h1V8h1V12z M246,4h-1v2h-1v2h-1V2h3V4z"/>
	<polygon fill="#FFFFFF" points="92,8 92,6 90,6 90,12 92,12 92,10 94,10 94,12 93,12 93,14 89,14 89,12 88,12 88,6 89,6 89,4 93,4 
		93,6 94,6 94,8 	"/>
	<rect x="269" y="10" fill="#FFFFFF" width="2" height="4"/>
	<polygon fill="#FFFFFF" points="252,10 252,12 254,12 254,10 256,10 256,14 250,14 250,10 251,10 251,8 252,8 252,6 254,6 254,2 
		252,2 252,4 250,4 250,2 251,2 251,0 255,0 255,2 256,2 256,6 255,6 255,8 253,8 253,10 	"/>
	<polygon fill="#FFFFFF" points="235,10 235,12 237,12 237,10 239,10 239,14 233,14 233,10 234,10 234,8 235,8 235,6 237,6 237,2 
		235,2 235,4 233,4 233,2 234,2 234,0 238,0 238,2 239,2 239,6 238,6 238,8 236,8 236,10 	"/>
	<polygon fill="#FFFFFF" points="138,2 138,6 141,6 141,8 142,8 142,12 141,12 141,14 137,14 137,12 136,12 136,10 138,10 138,12 
		140,12 140,8 137,8 137,6 136,6 136,0 142,0 142,2 	"/>
	<rect x="130" y="10" fill="#FFFFFF" width="2" height="4"/>
	<rect x="69" y="10" fill="#FFFFFF" width="1" height="2"/>
	<polygon fill="#FFFFFF" points="5,4 5,2 3,2 3,4 2,4 2,10 3,10 3,12 5,12 5,10 7,10 7,12 6,12 6,14 2,14 2,12 1,12 1,10 0,10 0,4 
		1,4 1,2 2,2 2,0 6,0 6,2 7,2 7,4 	"/>
	<path fill="#FFFFFF" d="M125,8V6h-3V4h1V2h2V0h-3v2h-1v2h-1v8h1v2h4v-2h1V8H125z M124,12h-2V8h2V12z"/>
	<polygon fill="#FFFFFF" points="114,10 114,12 116,12 116,10 118,10 118,14 112,14 112,10 113,10 113,8 114,8 114,6 116,6 116,2 
		114,2 114,4 112,4 112,2 113,2 113,0 117,0 117,2 118,2 118,6 117,6 117,8 115,8 115,10 	"/>
	<path fill="#FFFFFF" d="M264,2V0h-5v2h-1v10h1v2h5v-2h1V2H264z M263,12h-2v-2h1V8h1V12z M263,4h-1v2h-1v2h-1V2h3V4z"/>
	<polygon fill="#FFFFFF" points="207,4 207,6 206,6 206,14 205,14 205,16 200,16 200,14 204,14 204,12 201,12 201,10 200,10 200,6 
		201,6 201,4 204,4 204,6 202,6 202,10 204,10 204,6 205,6 205,4 	"/>
	<polygon fill="#FFFFFF" points="187,6 187,8 190,8 190,10 191,10 191,12 190,12 190,14 185,14 185,12 189,12 189,10 186,10 186,8 
		185,8 185,6 186,6 186,4 191,4 191,6 	"/>
	<path fill="#FFFFFF" d="M183,10V6h-1V4h-4v2h-1v6h1v2h4v-2h-3v-2H183z M179,6h2v2h-2V6z"/>
	<polygon fill="#FFFFFF" points="215,6 215,14 213,14 213,6 211,6 211,14 209,14 209,4 214,4 214,6 	"/>
	<path fill="#FFFFFF" d="M149,8V6h-3V4h1V2h2V0h-3v2h-1v2h-1v8h1v2h4v-2h1V8H149z M148,12h-2V8h2V12z"/>
	<polygon fill="#FFFFFF" points="83,4 83,10 84,10 84,12 85,12 85,14 83,14 83,12 82,12 82,10 81,10 81,4 82,4 82,2 83,2 83,0 85,0 
		85,2 84,2 84,4 	"/>
	<polygon fill="#FFFFFF" points="68,6 68,12 69,12 69,14 67,14 67,12 66,12 66,6 65,6 65,4 66,4 66,2 67,2 67,0 68,0 68,4 70,4 
		70,6 	"/>
	<polygon fill="#FFFFFF" points="63,6 63,14 61,14 61,6 60,6 60,4 62,4 62,6 	"/>
	<polygon fill="#FFFFFF" points="55,4 55,6 54,6 54,14 53,14 53,16 48,16 48,14 52,14 52,12 49,12 49,10 48,10 48,6 49,6 49,4 52,4 
		52,6 50,6 50,10 52,10 52,6 53,6 53,4 	"/>
	<path fill="#FFFFFF" d="M174,2V0h-6v2h1v10h-1v2h6v-2h1V2H174z M173,12h-2V2h2V12z"/>
	<rect x="194" fill="#FFFFFF" width="2" height="2"/>
	<polygon fill="#FFFFFF" points="154,2 154,6 157,6 157,8 158,8 158,12 157,12 157,14 153,14 153,12 152,12 152,10 154,10 154,12 
		156,12 156,8 153,8 153,6 152,6 152,0 158,0 158,2 	"/>
	<polygon fill="#FFFFFF" points="101,4 101,10 100,10 100,12 99,12 99,14 97,14 97,12 98,12 98,10 99,10 99,4 98,4 98,2 97,2 97,0 
		99,0 99,2 100,2 100,4 	"/>
	<path fill="#FFFFFF" d="M13,6V4H9v2H8v6h1v2h4v-2h1V6H13z M12,12h-2V6h2V12z"/>
	<polygon fill="#FFFFFF" points="23,6 23,10 22,10 22,12 19,12 19,14 20,14 20,16 16,16 16,14 17,14 17,6 16,6 16,4 18,4 18,6 19,6 
		19,10 21,10 21,6 19,6 19,4 22,4 22,6 	"/>
	<polygon fill="#FFFFFF" points="39,6 39,10 37,10 37,6 36,6 36,8 35,8 35,12 36,12 36,14 32,14 32,12 33,12 33,6 32,6 32,4 34,4 
		34,6 35,6 35,4 38,4 38,6 	"/>
	<polygon fill="#FFFFFF" points="30,4 30,14 29,14 29,16 24,16 24,14 28,14 28,12 25,12 25,10 24,10 24,4 26,4 26,10 28,10 28,4 	
		"/>
	<rect x="42" fill="#FFFFFF" width="2" height="2"/>
	<polygon fill="#FFFFFF" points="45,12 45,14 41,14 41,12 42,12 42,6 41,6 41,4 44,4 44,12 	"/>
	<polygon fill="#FFFFFF" points="60,6 60,8 59,8 59,14 56,14 56,12 57,12 57,2 56,2 56,0 59,0 59,6 	"/>
</g>
</svg>
