<?xml version="1.0" encoding="utf-8"?>

<!DOCTYPE svg PUBLIC "-//W3C//DTD SVG 1.1//EN" "http://www.w3.org/Graphics/SVG/1.1/DTD/svg11.dtd">
<svg version="1.1" id="Layer_1" xmlns="http://www.w3.org/2000/svg" xmlns:xlink="http://www.w3.org/1999/xlink" x="0px" y="0px"
	 width="456px" height="60px" viewBox="0 0 456 60" enable-background="new 0 0 456 60" xml:space="preserve" shape-rendering="crispEdges">
<g>
	<path fill="#FFFFFF" d="M426,28v-6h-4v-2h-2v-2h-4v-2h-6v-2h-18v2h-6v2h-4v2h-4v2h-2v2h-2v2h-2v2h-2v2h-2v4h-2v16h2v2h2v2h2v2h2v2
		h4v2h24v-2h6v-2h4v-2h4v-2h2v-2h2v-2h2v-2h2v-4h2v-2h2V28H426L426,28z M400,48h-6v2h-2v-2h-4v-2h-2v-8h2v-6h2v-2h2v-2h2v-2h6v-2h2
		v2h4v2h2v8h-2v6h-2v2h-2v2h-2V48L400,48z"/>
	<path fill="#FFFFFF" d="M302,28v-6h-4v-2h-2v-2h-4v-2h-6v-2h-18v2h-6v2h-4v2h-4v2h-2v2h-2v2h-2v2h-2v2h-2v4h-2v16h2v2h2v2h2v2h2v2
		h4v2h24v-2h6v-2h4v-2h4v-2h2v-2h2v-2h2v-2h2v-4h2v-2h2V28H302L302,28z M276,48h-6v2h-2v-2h-4v-2h-2v-8h2v-6h2v-2h2v-2h2v-2h6v-2h2
		v2h4v2h2v8h-2v6h-2v2h-2v2h-2V48L276,48z"/>
	<path fill="#FFFFFF" d="M126,28v-6h-4v-2h-2v-2h-4v-2h-6v-2H92v2h-6v2h-4v2h-4v2h-2v2h-2v2h-2v2h-2v2h-2v4h-2v16h2v2h2v2h2v2h2v2h4
		v2h24v-2h6v-2h4v-2h4v-2h2v-2h2v-2h2v-2h2v-4h2v-2h2V28H126L126,28z M100,48h-6v2h-2v-2h-4v-2h-2v-8h2v-6h2v-2h2v-2h2v-2h6v-2h2v2
		h4v2h2v8h-2v6h-2v2h-2v2h-2V48L100,48z"/>
	<polygon fill="#FFFFFF" points="450,26 449,26 448,26 447,26 446,26 445,26 444,26 443,26 442,26 441,26 440,26 440,27 440,28 
		441,28 442,28 443,28 444,28 445,28 446,28 447,28 448,28 449,28 450,28 451,28 452,28 452,27 452,26 451,26 	"/>
	<path fill="#FFFFFF" d="M67,26V14h-2V8h-4V6h-2V4h-4V2h-6V0H14v4h-2v8h-2v7.997H8v8H6v8H4v8H2v8H0v8h24v-8h2v-6h13V46h2v-2h6v-2h4
		v-2h4v-2h2v-2h2v-2h2v-2h2v-4h2v-2H67L67,26z M30,33.997v-6h2v-8h2V12h11v2h2v8h-2v6h-2v2h-2v2h-2v1.997H30L30,33.997z"/>
	<polygon fill="#FFFFFF" points="452,24 452,25 452,26 453,26 454,26 454,25 454,24 453,24 	"/>
	<polygon fill="#FFFFFF" points="440,24 439,24 438,24 438,25 438,26 439,26 440,26 440,25 	"/>
	<polygon fill="#FFFFFF" points="448,24 449,24 450,24 450,23 450,22 449,22 448,22 448,23 	"/>
	<polygon fill="#FFFFFF" points="242,23 242,20 244,20 244,16 246,16 246,14 236,14 236,12 238,12 238,10 244,10 244,8 246,8 246,4 
		248,4 248,0 230,0 230,2 226,2 226,4 224,4 224,6 222,6 222,10 220,10 220,14 204,14 204,10 206,10 206,4 190,4 190,10 188,10 
		188,14 178,14 178,16 176,16 176,20 174,20 174,24 182,24 182,28 180,28 180,36 178,36 178,44 176,44 176,50 174,50 174,56 176,56 
		176,58 178,58 178,60 198,60 198,56 200,56 200,50 202,50 202,48 192,48 192,44 194,44 194,36 196,36 196,28 198,28 198,24 216,24 
		216,28 214,28 214,36 212,36 212,44 210,44 210,52 208,52 208,60 224,60 224,52 226,52 226,44 228,44 228,36 230,36 230,28 232,28 
		232,24 242,24 242,23 	"/>
	<polygon fill="#FFFFFF" points="438,22 438,21 438,20 438,19 438,18 438,17 438,16 437,16 436,16 436,17 436,18 436,19 436,20 
		436,21 436,22 436,23 436,24 437,24 438,24 438,23 	"/>
	<polygon fill="#FFFFFF" points="446,20 445,20 444,20 444,19 444,18 445,18 446,18 447,18 448,18 448,17 448,16 447,16 446,16 
		445,16 444,16 443,16 442,16 442,17 442,18 442,19 442,20 442,21 442,22 442,23 442,24 443,24 444,24 444,23 444,22 445,22 446,22 
		447,22 448,22 448,21 448,20 447,20 	"/>
	<polygon fill="#FFFFFF" points="448,18 448,19 448,20 449,20 450,20 450,19 450,18 449,18 	"/>
	<polygon fill="#FFFFFF" points="455,16 454,16 454,17 454,18 454,19 454,20 454,21 454,22 454,23 454,24 455,24 456,24 456,23 
		456,22 456,21 456,20 456,19 456,18 456,17 456,16 	"/>
	<polygon fill="#FFFFFF" points="452,16 453,16 454,16 454,15 454,14 453,14 452,14 452,15 	"/>
	<polygon fill="#FFFFFF" points="440,16 440,15 440,14 439,14 438,14 438,15 438,16 439,16 	"/>
	<polygon fill="#FFFFFF" points="363,14 349,14 349,20 347,20 347,28 345,28 345,36 343,36 343,44 341,44 341,52 339,52 339,60 
		355,60 355,52 357,52 357,44 359,44 359,36 361,36 361,28 363,28 363,20 365,20 365,14 363,14 	"/>
	<polygon fill="#FFFFFF" points="169,14 167,14 167,16 161,16 161,18 157,18 157,20 155,20 155,22 153,22 153,20 155,20 155,14 
		139,14 139,20 137,20 137,28 135,28 135,36 133,36 133,42 131,42 131,52 129,52 129,60 145,60 145,52 147,52 147,44 149,44 149,40 
		151,40 151,36 153,36 153,34 155,34 155,32 159,32 159,30 165,30 165,26 167,26 167,22 169,22 169,20 171,20 171,14 169,14 	"/>
	<polygon fill="#FFFFFF" points="442,14 443,14 444,14 445,14 446,14 447,14 448,14 449,14 450,14 451,14 452,14 452,13 452,12 
		451,12 450,12 449,12 448,12 447,12 446,12 445,12 444,12 443,12 442,12 441,12 440,12 440,13 440,14 441,14 	"/>
	<polygon fill="#FFFFFF" points="367,8 367,6 369,6 369,0 353,0 353,4 351,4 351,8 367,8 	"/>
	<polygon fill="#FFFFFF" points="333,0 319,0 319,6 317,6 317,14 315,14 315,20 313,20 313,28 311,28 311,36 309,36 309,44 307,44 
		307,50 305,50 305,56 307,56 307,58 309,58 309,60 329,60 329,56 331,56 331,50 333,50 333,48 323,48 323,44 325,44 325,36 327,36 
		327,28 329,28 329,20 331,20 331,14 333,14 333,7 335,7 335,0 333,0 	"/>
</g>
</svg>
