<?xml version="1.0" encoding="utf-8"?>
<!DOCTYPE svg PUBLIC "-//W3C//DTD SVG 1.1//EN" "http://www.w3.org/Graphics/SVG/1.1/DTD/svg11.dtd">
<svg version="1.1" id="Layer_1" xmlns="http://www.w3.org/2000/svg" xmlns:xlink="http://www.w3.org/1999/xlink" x="0px" y="0px"
	 width="32px" height="32px" viewBox="0 0 32 32" enable-background="new 0 0 32 32" xml:space="preserve" shape-rendering="crispEdges">
<g>
	<g>
		<rect x="13.5" y="13.5" fill="#FFFF00" width="3" height="2"/>
	</g>
	<g>
		<polygon fill="#808000" points="17.5,12.5 17.5,15.5 16.5,15.5 16.5,13.5 13.5,13.5 13.5,15.5 12.5,15.5 12.5,12.5 		"/>
	</g>
	<g>
		<path fill="#C0C0C0" d="M28.5,12.5v-4h-1v-1h-24v1h-1v14h1v1h2v-1h1v-2h1v-1h17v2h1v2h2v-1h1v-6h-1v1h-4v-1h-1v-1h-1v-4h1v-1h4v1
			h1v1H28.5z M10.5,16.5h-1v1h-4v-1h-1v-1h-1v-4h1v-1h4v1h1v1h1V16.5z M20.5,16.5h-9v-5h9V16.5z"/>
		<polygon fill="#C0C0C0" points="24.5,22.5 24.5,23.5 22.5,23.5 22.5,22.5 20.5,22.5 20.5,21.5 18.5,21.5 18.5,22.5 20.5,22.5 
			20.5,23.5 10.5,23.5 10.5,22.5 12.5,22.5 12.5,21.5 10.5,21.5 10.5,22.5 8.5,22.5 8.5,23.5 6.5,23.5 6.5,22.5 7.5,22.5 7.5,20.5 
			14.5,20.5 14.5,21.5 16.5,21.5 16.5,20.5 23.5,20.5 23.5,22.5 		"/>
		<rect x="17.5" y="13.5" fill="#C0C0C0" width="2" height="2"/>
	</g>
	<g>
		<rect x="22.5" y="24.5" fill="#808080" width="2" height="1"/>
		<rect x="17.5" y="24.5" fill="#808080" width="2" height="1"/>
		<rect x="12.5" y="24.5" fill="#808080" width="2" height="1"/>
		<rect x="6.5" y="24.5" fill="#808080" width="3" height="1"/>
		<rect x="1.5" y="24.5" fill="#808080" width="4" height="1"/>
		<rect x="6.5" y="23.5" fill="#808080" width="18" height="1"/>
		<rect x="1.5" y="23.5" fill="#808080" width="4" height="1"/>
		<rect x="23.5" y="21.5" fill="#808080" width="2" height="1"/>
		<rect x="22.5" y="19.5" fill="#808080" width="2" height="1"/>
		<rect x="22.5" y="15.5" fill="#808080" width="1" height="1"/>
		<rect x="4.5" y="15.5" fill="#808080" width="1" height="1"/>
		<rect x="24.5" y="13.5" fill="#808080" width="1" height="1"/>
		<rect x="6.5" y="13.5" fill="#808080" width="1" height="1"/>
		<rect x="17.5" y="12.5" fill="#808080" width="2" height="1"/>
		<rect x="26.5" y="11.5" fill="#808080" width="1" height="1"/>
		<rect x="8.5" y="11.5" fill="#808080" width="1" height="1"/>
		<polygon fill="#808080" points="26.5,10.5 26.5,11.5 23.5,11.5 23.5,12.5 22.5,12.5 22.5,15.5 21.5,15.5 21.5,11.5 22.5,11.5 
			22.5,10.5 		"/>
		<polygon fill="#808080" points="8.5,10.5 8.5,11.5 5.5,11.5 5.5,12.5 4.5,12.5 4.5,15.5 3.5,15.5 3.5,11.5 4.5,11.5 4.5,10.5 		
			"/>
		<polygon fill="#808080" points="30.5,6.5 30.5,25.5 25.5,25.5 25.5,23.5 28.5,23.5 28.5,6.5 		"/>
	</g>
	<g>
		<rect x="21.5" y="22.5" fill="#FFFFFF" width="1" height="1"/>
		<rect x="9.5" y="22.5" fill="#FFFFFF" width="1" height="1"/>
		<rect x="5.5" y="22.5" fill="#FFFFFF" width="1" height="1"/>
		<polygon fill="#FFFFFF" points="28.5,6.5 28.5,7.5 2.5,7.5 2.5,23.5 1.5,23.5 1.5,6.5 		"/>
		<rect x="19.5" y="21.5" fill="#FFFFFF" width="1" height="1"/>
		<rect x="11.5" y="21.5" fill="#FFFFFF" width="1" height="1"/>
		<rect x="15.5" y="20.5" fill="#FFFFFF" width="1" height="1"/>
		<rect x="6.5" y="20.5" fill="#FFFFFF" width="1" height="2"/>
		<rect x="7.5" y="19.5" fill="#FFFFFF" width="15" height="1"/>
		<rect x="23.5" y="16.5" fill="#FFFFFF" width="4" height="1"/>
		<rect x="25.5" y="14.5" fill="#FFFFFF" width="1" height="1"/>
		<rect x="23.5" y="14.5" fill="#FFFFFF" width="1" height="1"/>
		<rect x="7.5" y="14.5" fill="#FFFFFF" width="1" height="1"/>
		<rect x="5.5" y="14.5" fill="#FFFFFF" width="1" height="1"/>
		<polygon fill="#FFFFFF" points="28.5,12.5 28.5,16.5 26.5,16.5 26.5,15.5 27.5,15.5 27.5,12.5 		"/>
		<rect x="25.5" y="12.5" fill="#FFFFFF" width="1" height="1"/>
		<rect x="23.5" y="12.5" fill="#FFFFFF" width="1" height="1"/>
		<polygon fill="#FFFFFF" points="20.5,12.5 20.5,16.5 12.5,16.5 12.5,15.5 19.5,15.5 19.5,12.5 		"/>
		<polygon fill="#FFFFFF" points="10.5,12.5 10.5,16.5 9.5,16.5 9.5,17.5 5.5,17.5 5.5,16.5 8.5,16.5 8.5,15.5 9.5,15.5 9.5,12.5 		
			"/>
		<rect x="7.5" y="12.5" fill="#FFFFFF" width="1" height="1"/>
		<rect x="5.5" y="12.5" fill="#FFFFFF" width="1" height="1"/>
	</g>
	<g>
		<polygon points="30.5,25.5 30.5,26.5 1.5,26.5 1.5,25.5 9.5,25.5 9.5,24.5 12.5,24.5 12.5,25.5 14.5,25.5 14.5,24.5 17.5,24.5 
			17.5,25.5 19.5,25.5 19.5,24.5 22.5,24.5 22.5,25.5 24.5,25.5 24.5,22.5 25.5,22.5 25.5,25.5 		"/>
		<rect x="5.5" y="23.5" width="1" height="2"/>
		<rect x="27.5" y="22.5" width="1" height="1"/>
		<rect x="20.5" y="22.5" width="1" height="1"/>
		<rect x="8.5" y="22.5" width="1" height="1"/>
		<rect x="2.5" y="22.5" width="1" height="1"/>
		<rect x="18.5" y="21.5" width="1" height="1"/>
		<rect x="10.5" y="21.5" width="1" height="1"/>
		<rect x="23.5" y="20.5" width="1" height="1"/>
		<rect x="14.5" y="20.5" width="1" height="1"/>
		<polygon points="26.5,15.5 26.5,16.5 23.5,16.5 23.5,15.5 24.5,15.5 24.5,14.5 25.5,14.5 25.5,15.5 		"/>
		<polygon points="8.5,15.5 8.5,16.5 5.5,16.5 5.5,15.5 6.5,15.5 6.5,14.5 7.5,14.5 7.5,15.5 		"/>
		<polygon points="9.5,12.5 9.5,15.5 8.5,15.5 8.5,14.5 7.5,14.5 7.5,13.5 8.5,13.5 8.5,12.5 		"/>
		<polygon points="27.5,12.5 27.5,15.5 26.5,15.5 26.5,14.5 25.5,14.5 25.5,13.5 26.5,13.5 26.5,12.5 		"/>
		<polygon points="24.5,13.5 24.5,14.5 23.5,14.5 23.5,15.5 22.5,15.5 22.5,12.5 23.5,12.5 23.5,13.5 		"/>
		<polygon points="6.5,13.5 6.5,14.5 5.5,14.5 5.5,15.5 4.5,15.5 4.5,12.5 5.5,12.5 5.5,13.5 		"/>
		<polygon points="26.5,11.5 26.5,12.5 25.5,12.5 25.5,13.5 24.5,13.5 24.5,12.5 23.5,12.5 23.5,11.5 		"/>
		<polygon points="20.5,11.5 20.5,12.5 12.5,12.5 12.5,16.5 11.5,16.5 11.5,11.5 		"/>
		<polygon points="8.5,11.5 8.5,12.5 7.5,12.5 7.5,13.5 6.5,13.5 6.5,12.5 5.5,12.5 5.5,11.5 		"/>
		<rect x="27.5" y="7.5" width="1" height="1"/>
		<rect x="2.5" y="7.5" width="1" height="1"/>
		<rect x="30.5" y="6.5" width="1" height="19"/>
		<rect x="0.5" y="6.5" width="1" height="19"/>
		<rect x="1.5" y="5.5" width="29" height="1"/>
	</g>
</g>
</svg>
