<?xml version="1.0" encoding="utf-8"?>
<!DOCTYPE svg PUBLIC "-//W3C//DTD SVG 1.1//EN" "http://www.w3.org/Graphics/SVG/1.1/DTD/svg11.dtd">
<svg version="1.1" id="Layer_1" xmlns="http://www.w3.org/2000/svg" xmlns:xlink="http://www.w3.org/1999/xlink" x="0px" y="0px"
	 width="10px" height="11px" viewBox="0 0 10 11" enable-background="new 0 0 10 11" xml:space="preserve" shape-rendering="crispEdges">
<g>
	<rect x="8" y="8" width="1" height="1"/>
	<rect x="7" y="8" width="1" height="1"/>
	<rect x="2" y="8" width="1" height="1"/>
	<rect x="1" y="8" width="1" height="1"/>
	<rect x="7" y="7" width="1" height="1"/>
	<rect x="6" y="7" width="1" height="1"/>
	<rect x="3" y="7" width="1" height="1"/>
	<rect x="2" y="7" width="1" height="1"/>
	<rect x="6" y="6" width="1" height="1"/>
	<rect x="5" y="6" width="1" height="1"/>
	<rect x="4" y="6" width="1" height="1"/>
	<rect x="3" y="6" width="1" height="1"/>
	<rect x="5" y="5" width="1" height="1"/>
	<rect x="4" y="5" width="1" height="1"/>
	<rect x="6" y="4" width="1" height="1"/>
	<rect x="5" y="4" width="1" height="1"/>
	<rect x="4" y="4" width="1" height="1"/>
	<rect x="3" y="4" width="1" height="1"/>
	<rect x="7" y="3" width="1" height="1"/>
	<rect x="6" y="3" width="1" height="1"/>
	<rect x="3" y="3" width="1" height="1"/>
	<rect x="2" y="3" width="1" height="1"/>
	<rect x="8" y="2" width="1" height="1"/>
	<rect x="7" y="2" width="1" height="1"/>
	<rect x="2" y="2" width="1" height="1"/>
	<rect x="1" y="2" width="1" height="1"/>
</g>
</svg>
