<?xml version="1.0" encoding="utf-8"?>
<!DOCTYPE svg PUBLIC "-//W3C//DTD SVG 1.1//EN" "http://www.w3.org/Graphics/SVG/1.1/DTD/svg11.dtd">
<svg version="1.1" id="Layer_1" xmlns="http://www.w3.org/2000/svg" xmlns:xlink="http://www.w3.org/1999/xlink" x="0px" y="0px"
	 width="32px" height="32px" viewBox="0 0 32 32" enable-background="new 0 0 32 32" xml:space="preserve" shape-rendering="crispEdges">
<g>
	<rect x="27.5" y="31" width="1" height="1"/>
	<rect x="26.5" y="31" width="1" height="1"/>
	<rect x="25.5" y="31" width="1" height="1"/>
	<rect x="24.5" y="31" width="1" height="1"/>
	<rect x="23.5" y="31" width="1" height="1"/>
	<rect x="22.5" y="31" width="1" height="1"/>
	<rect x="21.5" y="31" width="1" height="1"/>
	<rect x="20.5" y="31" width="1" height="1"/>
	<rect x="19.5" y="31" width="1" height="1"/>
	<rect x="18.5" y="31" width="1" height="1"/>
	<rect x="17.5" y="31" width="1" height="1"/>
	<rect x="16.5" y="31" width="1" height="1"/>
	<rect x="15.5" y="31" width="1" height="1"/>
	<rect x="14.5" y="31" width="1" height="1"/>
	<rect x="13.5" y="31" width="1" height="1"/>
	<rect x="12.5" y="31" width="1" height="1"/>
	<rect x="11.5" y="31" width="1" height="1"/>
	<rect x="10.5" y="31" width="1" height="1"/>
	<rect x="9.5" y="31" width="1" height="1"/>
	<rect x="8.5" y="31" width="1" height="1"/>
	<rect x="7.5" y="31" width="1" height="1"/>
	<rect x="6.5" y="31" width="1" height="1"/>
	<rect x="5.5" y="31" width="1" height="1"/>
	<rect x="4.5" y="31" width="1" height="1"/>
	<rect x="3.5" y="31" width="1" height="1"/>
	<rect x="27.5" y="30" width="1" height="1"/>
	<rect x="26.5" y="30" fill="#808080" width="1" height="1"/>
	<rect x="25.5" y="30" fill="#808080" width="1" height="1"/>
	<rect x="24.5" y="30" fill="#808080" width="1" height="1"/>
	<rect x="23.5" y="30" fill="#808080" width="1" height="1"/>
	<rect x="22.5" y="30" fill="#808080" width="1" height="1"/>
	<rect x="21.5" y="30" fill="#808080" width="1" height="1"/>
	<rect x="20.5" y="30" fill="#808080" width="1" height="1"/>
	<rect x="19.5" y="30" fill="#808080" width="1" height="1"/>
	<rect x="18.5" y="30" fill="#808080" width="1" height="1"/>
	<rect x="17.5" y="30" fill="#808080" width="1" height="1"/>
	<rect x="16.5" y="30" fill="#808080" width="1" height="1"/>
	<rect x="15.5" y="30" fill="#808080" width="1" height="1"/>
	<rect x="14.5" y="30" fill="#808080" width="1" height="1"/>
	<rect x="13.5" y="30" fill="#808080" width="1" height="1"/>
	<rect x="12.5" y="30" fill="#808080" width="1" height="1"/>
	<rect x="11.5" y="30" fill="#808080" width="1" height="1"/>
	<rect x="10.5" y="30" fill="#808080" width="1" height="1"/>
	<rect x="9.5" y="30" fill="#808080" width="1" height="1"/>
	<rect x="8.5" y="30" fill="#808080" width="1" height="1"/>
	<rect x="7.5" y="30" fill="#808080" width="1" height="1"/>
	<rect x="6.5" y="30" fill="#808080" width="1" height="1"/>
	<rect x="5.5" y="30" fill="#808080" width="1" height="1"/>
	<rect x="4.5" y="30" fill="#808080" width="1" height="1"/>
	<rect x="3.5" y="30" width="1" height="1"/>
	<rect x="27.5" y="29" width="1" height="1"/>
	<rect x="26.5" y="29" fill="#808080" width="1" height="1"/>
	<rect x="25.5" y="29" fill="#FFFF00" width="1" height="1"/>
	<rect x="24.5" y="29" fill="#FFFFFF" width="1" height="1"/>
	<rect x="23.5" y="29" fill="#FFFF00" width="1" height="1"/>
	<rect x="22.5" y="29" fill="#FFFFFF" width="1" height="1"/>
	<rect x="21.5" y="29" fill="#FFFF00" width="1" height="1"/>
	<rect x="20.5" y="29" fill="#FFFFFF" width="1" height="1"/>
	<rect x="19.5" y="29" fill="#FFFF00" width="1" height="1"/>
	<rect x="18.5" y="29" fill="#FFFFFF" width="1" height="1"/>
	<rect x="17.5" y="29" fill="#FFFF00" width="1" height="1"/>
	<rect x="16.5" y="29" fill="#FFFFFF" width="1" height="1"/>
	<rect x="15.5" y="29" fill="#FFFF00" width="1" height="1"/>
	<rect x="14.5" y="29" fill="#FFFFFF" width="1" height="1"/>
	<rect x="13.5" y="29" fill="#FFFF00" width="1" height="1"/>
	<rect x="12.5" y="29" fill="#FFFFFF" width="1" height="1"/>
	<rect x="11.5" y="29" fill="#FFFF00" width="1" height="1"/>
	<rect x="10.5" y="29" fill="#FFFFFF" width="1" height="1"/>
	<rect x="9.5" y="29" fill="#FFFF00" width="1" height="1"/>
	<rect x="8.5" y="29" fill="#FFFFFF" width="1" height="1"/>
	<rect x="7.5" y="29" fill="#FFFF00" width="1" height="1"/>
	<rect x="6.5" y="29" fill="#FFFFFF" width="1" height="1"/>
	<rect x="5.5" y="29" fill="#FFFF00" width="1" height="1"/>
	<rect x="4.5" y="29" fill="#808000" width="1" height="1"/>
	<rect x="3.5" y="29" width="1" height="1"/>
	<rect x="27.5" y="28" width="1" height="1"/>
	<rect x="26.5" y="28" fill="#808080" width="1" height="1"/>
	<rect x="25.5" y="28" fill="#FFFFFF" width="1" height="1"/>
	<rect x="24.5" y="28" fill="#FFFF00" width="1" height="1"/>
	<rect x="23.5" y="28" fill="#FFFFFF" width="1" height="1"/>
	<rect x="22.5" y="28" fill="#FFFF00" width="1" height="1"/>
	<rect x="21.5" y="28" fill="#FFFFFF" width="1" height="1"/>
	<rect x="20.5" y="28" fill="#FFFF00" width="1" height="1"/>
	<rect x="19.5" y="28" fill="#FFFFFF" width="1" height="1"/>
	<rect x="18.5" y="28" fill="#FFFF00" width="1" height="1"/>
	<rect x="17.5" y="28" fill="#FFFFFF" width="1" height="1"/>
	<rect x="16.5" y="28" fill="#FFFF00" width="1" height="1"/>
	<rect x="15.5" y="28" fill="#FFFFFF" width="1" height="1"/>
	<rect x="14.5" y="28" fill="#FFFF00" width="1" height="1"/>
	<rect x="13.5" y="28" fill="#FFFFFF" width="1" height="1"/>
	<rect x="12.5" y="28" fill="#FFFF00" width="1" height="1"/>
	<rect x="11.5" y="28" fill="#FFFFFF" width="1" height="1"/>
	<rect x="10.5" y="28" fill="#FFFF00" width="1" height="1"/>
	<rect x="9.5" y="28" fill="#FFFFFF" width="1" height="1"/>
	<rect x="8.5" y="28" fill="#FFFF00" width="1" height="1"/>
	<rect x="7.5" y="28" fill="#FFFFFF" width="1" height="1"/>
	<rect x="6.5" y="28" fill="#FFFF00" width="1" height="1"/>
	<rect x="5.5" y="28" fill="#FFFFFF" width="1" height="1"/>
	<rect x="4.5" y="28" fill="#808000" width="1" height="1"/>
	<rect x="3.5" y="28" width="1" height="1"/>
	<rect x="27.5" y="27" width="1" height="1"/>
	<rect x="26.5" y="27" fill="#808080" width="1" height="1"/>
	<rect x="25.5" y="27" fill="#808000" width="1" height="1"/>
	<rect x="24.5" y="27" fill="#808000" width="1" height="1"/>
	<rect x="23.5" y="27" fill="#808000" width="1" height="1"/>
	<rect x="22.5" y="27" fill="#808000" width="1" height="1"/>
	<rect x="21.5" y="27" fill="#808000" width="1" height="1"/>
	<rect x="20.5" y="27" fill="#808000" width="1" height="1"/>
	<rect x="19.5" y="27" fill="#808000" width="1" height="1"/>
	<rect x="18.5" y="27" fill="#808000" width="1" height="1"/>
	<rect x="17.5" y="27" fill="#808000" width="1" height="1"/>
	<rect x="16.5" y="27" fill="#808000" width="1" height="1"/>
	<rect x="15.5" y="27" fill="#808000" width="1" height="1"/>
	<rect x="14.5" y="27" fill="#808000" width="1" height="1"/>
	<rect x="13.5" y="27" fill="#808000" width="1" height="1"/>
	<rect x="12.5" y="27" fill="#808000" width="1" height="1"/>
	<rect x="11.5" y="27" fill="#808000" width="1" height="1"/>
	<rect x="10.5" y="27" fill="#808000" width="1" height="1"/>
	<rect x="9.5" y="27" fill="#808000" width="1" height="1"/>
	<rect x="8.5" y="27" fill="#808000" width="1" height="1"/>
	<rect x="7.5" y="27" fill="#808000" width="1" height="1"/>
	<rect x="6.5" y="27" fill="#808000" width="1" height="1"/>
	<rect x="5.5" y="27" fill="#808000" width="1" height="1"/>
	<rect x="4.5" y="27" fill="#FFFFFF" width="1" height="1"/>
	<rect x="3.5" y="27" width="1" height="1"/>
	<rect x="27.5" y="26" width="1" height="1"/>
	<rect x="26.5" y="26" fill="#808080" width="1" height="1"/>
	<rect x="25.5" y="26" fill="#FFFFFF" width="1" height="1"/>
	<rect x="24.5" y="26" fill="#FFFF00" width="1" height="1"/>
	<rect x="23.5" y="26" fill="#FFFFFF" width="1" height="1"/>
	<rect x="22.5" y="26" fill="#FFFF00" width="1" height="1"/>
	<rect x="21.5" y="26" fill="#FFFFFF" width="1" height="1"/>
	<rect x="20.5" y="26" fill="#FFFF00" width="1" height="1"/>
	<rect x="19.5" y="26" fill="#FFFFFF" width="1" height="1"/>
	<rect x="18.5" y="26" fill="#FFFF00" width="1" height="1"/>
	<rect x="17.5" y="26" fill="#FFFFFF" width="1" height="1"/>
	<rect x="16.5" y="26" fill="#FFFF00" width="1" height="1"/>
	<rect x="15.5" y="26" fill="#808000" width="1" height="1"/>
	<rect x="14.5" y="26" fill="#FFFF00" width="1" height="1"/>
	<rect x="13.5" y="26" fill="#FFFFFF" width="1" height="1"/>
	<rect x="12.5" y="26" fill="#FFFF00" width="1" height="1"/>
	<rect x="11.5" y="26" fill="#FFFFFF" width="1" height="1"/>
	<rect x="10.5" y="26" fill="#FFFF00" width="1" height="1"/>
	<rect x="9.5" y="26" fill="#FFFFFF" width="1" height="1"/>
	<rect x="8.5" y="26" fill="#FFFF00" width="1" height="1"/>
	<rect x="7.5" y="26" fill="#FFFFFF" width="1" height="1"/>
	<rect x="6.5" y="26" fill="#FFFF00" width="1" height="1"/>
	<rect x="5.5" y="26" fill="#FFFFFF" width="1" height="1"/>
	<rect x="4.5" y="26" fill="#FFFF00" width="1" height="1"/>
	<rect x="3.5" y="26" width="1" height="1"/>
	<rect x="27.5" y="25" width="1" height="1"/>
	<rect x="26.5" y="25" fill="#808080" width="1" height="1"/>
	<rect x="25.5" y="25" fill="#FFFF00" width="1" height="1"/>
	<rect x="24.5" y="25" fill="#FFFFFF" width="1" height="1"/>
	<rect x="23.5" y="25" fill="#FFFF00" width="1" height="1"/>
	<rect x="22.5" y="25" fill="#FFFFFF" width="1" height="1"/>
	<rect x="21.5" y="25" fill="#FFFF00" width="1" height="1"/>
	<rect x="20.5" y="25" fill="#FFFFFF" width="1" height="1"/>
	<rect x="19.5" y="25" fill="#FFFF00" width="1" height="1"/>
	<rect x="18.5" y="25" fill="#FFFFFF" width="1" height="1"/>
	<rect x="17.5" y="25" fill="#FFFF00" width="1" height="1"/>
	<rect x="16.5" y="25" fill="#FFFFFF" width="1" height="1"/>
	<rect x="15.5" y="25" fill="#808000" width="1" height="1"/>
	<rect x="14.5" y="25" fill="#FFFFFF" width="1" height="1"/>
	<rect x="13.5" y="25" fill="#FFFF00" width="1" height="1"/>
	<rect x="12.5" y="25" fill="#FFFFFF" width="1" height="1"/>
	<rect x="11.5" y="25" fill="#FFFF00" width="1" height="1"/>
	<rect x="10.5" y="25" fill="#FFFFFF" width="1" height="1"/>
	<rect x="9.5" y="25" fill="#FFFF00" width="1" height="1"/>
	<rect x="8.5" y="25" fill="#FFFFFF" width="1" height="1"/>
	<rect x="7.5" y="25" fill="#FFFF00" width="1" height="1"/>
	<rect x="6.5" y="25" fill="#FFFFFF" width="1" height="1"/>
	<rect x="5.5" y="25" fill="#FFFF00" width="1" height="1"/>
	<rect x="4.5" y="25" fill="#FFFFFF" width="1" height="1"/>
	<rect x="3.5" y="25" width="1" height="1"/>
	<rect x="27.5" y="24" width="1" height="1"/>
	<rect x="26.5" y="24" fill="#808080" width="1" height="1"/>
	<rect x="25.5" y="24" fill="#FFFFFF" width="1" height="1"/>
	<rect x="24.5" y="24" fill="#FFFF00" width="1" height="1"/>
	<rect x="23.5" y="24" fill="#FFFFFF" width="1" height="1"/>
	<rect x="22.5" y="24" fill="#FFFF00" width="1" height="1"/>
	<rect x="21.5" y="24" fill="#FFFFFF" width="1" height="1"/>
	<rect x="20.5" y="24" fill="#FFFF00" width="1" height="1"/>
	<rect x="19.5" y="24" fill="#FFFFFF" width="1" height="1"/>
	<rect x="18.5" y="24" fill="#FFFF00" width="1" height="1"/>
	<rect x="17.5" y="24" fill="#FFFFFF" width="1" height="1"/>
	<rect x="16.5" y="24" fill="#FFFF00" width="1" height="1"/>
	<rect x="15.5" y="24" fill="#808000" width="1" height="1"/>
	<rect x="14.5" y="24" fill="#FFFF00" width="1" height="1"/>
	<rect x="13.5" y="24" fill="#FFFFFF" width="1" height="1"/>
	<rect x="12.5" y="24" fill="#FFFF00" width="1" height="1"/>
	<rect x="11.5" y="24" fill="#FFFFFF" width="1" height="1"/>
	<rect x="10.5" y="24" fill="#FFFF00" width="1" height="1"/>
	<rect x="9.5" y="24" fill="#FFFFFF" width="1" height="1"/>
	<rect x="8.5" y="24" fill="#FFFF00" width="1" height="1"/>
	<rect x="7.5" y="24" fill="#FFFFFF" width="1" height="1"/>
	<rect x="6.5" y="24" fill="#FFFF00" width="1" height="1"/>
	<rect x="5.5" y="24" fill="#FFFFFF" width="1" height="1"/>
	<rect x="4.5" y="24" fill="#FFFF00" width="1" height="1"/>
	<rect x="3.5" y="24" width="1" height="1"/>
	<rect x="27.5" y="23" width="1" height="1"/>
	<rect x="26.5" y="23" fill="#808080" width="1" height="1"/>
	<rect x="25.5" y="23" fill="#FFFF00" width="1" height="1"/>
	<rect x="24.5" y="23" fill="#FFFFFF" width="1" height="1"/>
	<rect x="23.5" y="23" fill="#FFFF00" width="1" height="1"/>
	<rect x="22.5" y="23" fill="#FFFFFF" width="1" height="1"/>
	<rect x="21.5" y="23" fill="#FFFF00" width="1" height="1"/>
	<rect x="20.5" y="23" fill="#FFFFFF" width="1" height="1"/>
	<rect x="19.5" y="23" fill="#FFFF00" width="1" height="1"/>
	<rect x="18.5" y="23" fill="#FFFFFF" width="1" height="1"/>
	<rect x="17.5" y="23" fill="#FFFF00" width="1" height="1"/>
	<rect x="16.5" y="23" fill="#FFFFFF" width="1" height="1"/>
	<rect x="15.5" y="23" fill="#808000" width="1" height="1"/>
	<rect x="14.5" y="23" fill="#FFFFFF" width="1" height="1"/>
	<rect x="13.5" y="23" fill="#FFFF00" width="1" height="1"/>
	<rect x="12.5" y="23" fill="#FFFFFF" width="1" height="1"/>
	<rect x="11.5" y="23" fill="#FFFF00" width="1" height="1"/>
	<rect x="10.5" y="23" fill="#FFFFFF" width="1" height="1"/>
	<rect x="9.5" y="23" fill="#FFFF00" width="1" height="1"/>
	<rect x="8.5" y="23" fill="#FFFFFF" width="1" height="1"/>
	<rect x="7.5" y="23" fill="#FFFF00" width="1" height="1"/>
	<rect x="6.5" y="23" fill="#FFFFFF" width="1" height="1"/>
	<rect x="5.5" y="23" fill="#FFFF00" width="1" height="1"/>
	<rect x="4.5" y="23" fill="#FFFFFF" width="1" height="1"/>
	<rect x="3.5" y="23" width="1" height="1"/>
	<rect x="27.5" y="22" width="1" height="1"/>
	<rect x="26.5" y="22" fill="#808080" width="1" height="1"/>
	<rect x="25.5" y="22" fill="#FFFFFF" width="1" height="1"/>
	<rect x="24.5" y="22" fill="#FFFF00" width="1" height="1"/>
	<rect x="23.5" y="22" fill="#FFFFFF" width="1" height="1"/>
	<rect x="22.5" y="22" fill="#FFFF00" width="1" height="1"/>
	<rect x="21.5" y="22" fill="#FFFFFF" width="1" height="1"/>
	<rect x="20.5" y="22" fill="#FFFF00" width="1" height="1"/>
	<rect x="19.5" y="22" fill="#FFFFFF" width="1" height="1"/>
	<rect x="18.5" y="22" fill="#FFFF00" width="1" height="1"/>
	<rect x="17.5" y="22" fill="#FFFFFF" width="1" height="1"/>
	<rect x="16.5" y="22" fill="#FFFF00" width="1" height="1"/>
	<rect x="15.5" y="22" fill="#808000" width="1" height="1"/>
	<rect x="14.5" y="22" fill="#FFFF00" width="1" height="1"/>
	<rect x="13.5" y="22" fill="#FFFFFF" width="1" height="1"/>
	<rect x="12.5" y="22" fill="#FFFF00" width="1" height="1"/>
	<rect x="11.5" y="22" fill="#FFFFFF" width="1" height="1"/>
	<rect x="10.5" y="22" fill="#FFFF00" width="1" height="1"/>
	<rect x="9.5" y="22" fill="#FFFFFF" width="1" height="1"/>
	<rect x="8.5" y="22" fill="#FFFF00" width="1" height="1"/>
	<rect x="7.5" y="22" fill="#FFFFFF" width="1" height="1"/>
	<rect x="6.5" y="22" fill="#FFFF00" width="1" height="1"/>
	<rect x="5.5" y="22" fill="#FFFFFF" width="1" height="1"/>
	<rect x="4.5" y="22" fill="#FFFF00" width="1" height="1"/>
	<rect x="3.5" y="22" width="1" height="1"/>
	<rect x="27.5" y="21" width="1" height="1"/>
	<rect x="26.5" y="21" fill="#808080" width="1" height="1"/>
	<rect x="25.5" y="21" fill="#FFFF00" width="1" height="1"/>
	<rect x="24.5" y="21" fill="#FFFFFF" width="1" height="1"/>
	<rect x="23.5" y="21" fill="#FFFF00" width="1" height="1"/>
	<rect x="22.5" y="21" fill="#FFFFFF" width="1" height="1"/>
	<rect x="21.5" y="21" fill="#FFFF00" width="1" height="1"/>
	<rect x="20.5" y="21" fill="#FFFFFF" width="1" height="1"/>
	<rect x="19.5" y="21" fill="#FFFF00" width="1" height="1"/>
	<rect x="18.5" y="21" fill="#FFFFFF" width="1" height="1"/>
	<rect x="17.5" y="21" fill="#FFFF00" width="1" height="1"/>
	<rect x="16.5" y="21" fill="#FFFFFF" width="1" height="1"/>
	<rect x="15.5" y="21" fill="#808000" width="1" height="1"/>
	<rect x="14.5" y="21" fill="#FFFFFF" width="1" height="1"/>
	<rect x="13.5" y="21" fill="#FFFF00" width="1" height="1"/>
	<rect x="12.5" y="21" fill="#FFFFFF" width="1" height="1"/>
	<rect x="11.5" y="21" fill="#FFFF00" width="1" height="1"/>
	<rect x="10.5" y="21" fill="#FFFFFF" width="1" height="1"/>
	<rect x="9.5" y="21" fill="#FFFF00" width="1" height="1"/>
	<rect x="8.5" y="21" fill="#FFFFFF" width="1" height="1"/>
	<rect x="7.5" y="21" fill="#FFFF00" width="1" height="1"/>
	<rect x="6.5" y="21" fill="#FFFFFF" width="1" height="1"/>
	<rect x="5.5" y="21" fill="#FFFF00" width="1" height="1"/>
	<rect x="4.5" y="21" fill="#FFFFFF" width="1" height="1"/>
	<rect x="3.5" y="21" width="1" height="1"/>
	<rect x="27.5" y="20" width="1" height="1"/>
	<rect x="26.5" y="20" fill="#808080" width="1" height="1"/>
	<rect x="25.5" y="20" fill="#FFFFFF" width="1" height="1"/>
	<rect x="24.5" y="20" fill="#FFFF00" width="1" height="1"/>
	<rect x="23.5" y="20" fill="#FFFFFF" width="1" height="1"/>
	<rect x="22.5" y="20" fill="#FFFF00" width="1" height="1"/>
	<rect x="21.5" y="20" fill="#FFFFFF" width="1" height="1"/>
	<rect x="20.5" y="20" fill="#FFFF00" width="1" height="1"/>
	<rect x="19.5" y="20" fill="#FFFFFF" width="1" height="1"/>
	<rect x="18.5" y="20" fill="#FFFF00" width="1" height="1"/>
	<rect x="17.5" y="20" fill="#FFFFFF" width="1" height="1"/>
	<rect x="16.5" y="20" fill="#FFFF00" width="1" height="1"/>
	<rect x="15.5" y="20" fill="#808000" width="1" height="1"/>
	<rect x="14.5" y="20" fill="#FFFF00" width="1" height="1"/>
	<rect x="13.5" y="20" fill="#FFFFFF" width="1" height="1"/>
	<rect x="12.5" y="20" fill="#FFFF00" width="1" height="1"/>
	<rect x="11.5" y="20" fill="#FFFFFF" width="1" height="1"/>
	<rect x="10.5" y="20" fill="#FFFF00" width="1" height="1"/>
	<rect x="9.5" y="20" fill="#FFFFFF" width="1" height="1"/>
	<rect x="8.5" y="20" fill="#FFFF00" width="1" height="1"/>
	<rect x="7.5" y="20" fill="#FFFFFF" width="1" height="1"/>
	<rect x="6.5" y="20" fill="#FFFF00" width="1" height="1"/>
	<rect x="5.5" y="20" fill="#FFFFFF" width="1" height="1"/>
	<rect x="4.5" y="20" fill="#FFFF00" width="1" height="1"/>
	<rect x="3.5" y="20" width="1" height="1"/>
	<rect x="27.5" y="19" width="1" height="1"/>
	<rect x="26.5" y="19" fill="#808080" width="1" height="1"/>
	<rect x="25.5" y="19" fill="#FFFF00" width="1" height="1"/>
	<rect x="24.5" y="19" fill="#FFFFFF" width="1" height="1"/>
	<rect x="23.5" y="19" fill="#FFFF00" width="1" height="1"/>
	<rect x="22.5" y="19" fill="#FFFFFF" width="1" height="1"/>
	<rect x="21.5" y="19" fill="#FFFF00" width="1" height="1"/>
	<rect x="20.5" y="19" fill="#FFFFFF" width="1" height="1"/>
	<rect x="19.5" y="19" fill="#FFFF00" width="1" height="1"/>
	<rect x="18.5" y="19" fill="#FFFFFF" width="1" height="1"/>
	<rect x="17.5" y="19" fill="#FFFF00" width="1" height="1"/>
	<rect x="16.5" y="19" fill="#FFFFFF" width="1" height="1"/>
	<rect x="15.5" y="19" fill="#808000" width="1" height="1"/>
	<rect x="14.5" y="19" fill="#FFFFFF" width="1" height="1"/>
	<rect x="13.5" y="19" fill="#FFFF00" width="1" height="1"/>
	<rect x="12.5" y="19" fill="#FFFFFF" width="1" height="1"/>
	<rect x="11.5" y="19" fill="#FFFF00" width="1" height="1"/>
	<rect x="10.5" y="19" fill="#FFFFFF" width="1" height="1"/>
	<rect x="9.5" y="19" fill="#FFFF00" width="1" height="1"/>
	<rect x="8.5" y="19" fill="#FFFFFF" width="1" height="1"/>
	<rect x="7.5" y="19" fill="#FFFF00" width="1" height="1"/>
	<rect x="6.5" y="19" fill="#FFFFFF" width="1" height="1"/>
	<rect x="5.5" y="19" fill="#FFFF00" width="1" height="1"/>
	<rect x="4.5" y="19" fill="#FFFFFF" width="1" height="1"/>
	<rect x="3.5" y="19" width="1" height="1"/>
	<rect x="27.5" y="18" width="1" height="1"/>
	<rect x="26.5" y="18" fill="#808080" width="1" height="1"/>
	<rect x="25.5" y="18" fill="#FFFFFF" width="1" height="1"/>
	<rect x="24.5" y="18" fill="#FFFF00" width="1" height="1"/>
	<rect x="23.5" y="18" fill="#FFFFFF" width="1" height="1"/>
	<rect x="22.5" y="18" fill="#FFFF00" width="1" height="1"/>
	<rect x="21.5" y="18" fill="#FFFFFF" width="1" height="1"/>
	<rect x="20.5" y="18" fill="#FFFF00" width="1" height="1"/>
	<rect x="19.5" y="18" fill="#FFFFFF" width="1" height="1"/>
	<rect x="18.5" y="18" fill="#FFFF00" width="1" height="1"/>
	<rect x="17.5" y="18" fill="#FFFFFF" width="1" height="1"/>
	<rect x="16.5" y="18" fill="#FFFF00" width="1" height="1"/>
	<rect x="15.5" y="18" fill="#808000" width="1" height="1"/>
	<rect x="14.5" y="18" fill="#FFFF00" width="1" height="1"/>
	<rect x="13.5" y="18" fill="#FFFFFF" width="1" height="1"/>
	<rect x="12.5" y="18" fill="#FFFF00" width="1" height="1"/>
	<rect x="11.5" y="18" fill="#FFFFFF" width="1" height="1"/>
	<rect x="10.5" y="18" fill="#FFFF00" width="1" height="1"/>
	<rect x="9.5" y="18" fill="#FFFFFF" width="1" height="1"/>
	<rect x="8.5" y="18" fill="#FFFF00" width="1" height="1"/>
	<rect x="7.5" y="18" fill="#FFFFFF" width="1" height="1"/>
	<rect x="6.5" y="18" fill="#FFFF00" width="1" height="1"/>
	<rect x="5.5" y="18" fill="#FFFFFF" width="1" height="1"/>
	<rect x="4.5" y="18" fill="#FFFF00" width="1" height="1"/>
	<rect x="3.5" y="18" width="1" height="1"/>
	<rect x="27.5" y="17" width="1" height="1"/>
	<rect x="26.5" y="17" fill="#808080" width="1" height="1"/>
	<rect x="25.5" y="17" fill="#FFFF00" width="1" height="1"/>
	<rect x="24.5" y="17" fill="#FFFFFF" width="1" height="1"/>
	<rect x="23.5" y="17" fill="#FFFF00" width="1" height="1"/>
	<rect x="22.5" y="17" fill="#FFFFFF" width="1" height="1"/>
	<rect x="21.5" y="17" fill="#FFFF00" width="1" height="1"/>
	<rect x="20.5" y="17" fill="#FFFFFF" width="1" height="1"/>
	<rect x="19.5" y="17" fill="#FFFF00" width="1" height="1"/>
	<rect x="18.5" y="17" fill="#FFFFFF" width="1" height="1"/>
	<rect x="17.5" y="17" fill="#FFFF00" width="1" height="1"/>
	<rect x="16.5" y="17" fill="#FFFFFF" width="1" height="1"/>
	<rect x="15.5" y="17" fill="#808000" width="1" height="1"/>
	<rect x="14.5" y="17" fill="#FFFFFF" width="1" height="1"/>
	<rect x="13.5" y="17" fill="#FFFF00" width="1" height="1"/>
	<rect x="12.5" y="17" fill="#FFFFFF" width="1" height="1"/>
	<rect x="11.5" y="17" fill="#FFFF00" width="1" height="1"/>
	<rect x="10.5" y="17" fill="#FFFFFF" width="1" height="1"/>
	<rect x="9.5" y="17" fill="#FFFF00" width="1" height="1"/>
	<rect x="8.5" y="17" fill="#FFFFFF" width="1" height="1"/>
	<rect x="7.5" y="17" fill="#FFFF00" width="1" height="1"/>
	<rect x="6.5" y="17" fill="#FFFFFF" width="1" height="1"/>
	<rect x="5.5" y="17" fill="#FFFF00" width="1" height="1"/>
	<rect x="4.5" y="17" fill="#FFFFFF" width="1" height="1"/>
	<rect x="3.5" y="17" width="1" height="1"/>
	<rect x="27.5" y="16" width="1" height="1"/>
	<rect x="26.5" y="16" fill="#808080" width="1" height="1"/>
	<rect x="25.5" y="16" fill="#FFFFFF" width="1" height="1"/>
	<rect x="24.5" y="16" fill="#FFFF00" width="1" height="1"/>
	<rect x="23.5" y="16" fill="#FFFFFF" width="1" height="1"/>
	<rect x="22.5" y="16" fill="#FFFF00" width="1" height="1"/>
	<rect x="21.5" y="16" fill="#FFFFFF" width="1" height="1"/>
	<rect x="20.5" y="16" fill="#FFFF00" width="1" height="1"/>
	<rect x="19.5" y="16" fill="#FFFFFF" width="1" height="1"/>
	<rect x="18.5" y="16" fill="#FFFF00" width="1" height="1"/>
	<rect x="17.5" y="16" fill="#FFFFFF" width="1" height="1"/>
	<rect x="16.5" y="16" fill="#FFFF00" width="1" height="1"/>
	<rect x="15.5" y="16" fill="#808000" width="1" height="1"/>
	<rect x="14.5" y="16" fill="#FFFF00" width="1" height="1"/>
	<rect x="13.5" y="16" fill="#FFFFFF" width="1" height="1"/>
	<rect x="12.5" y="16" fill="#FFFF00" width="1" height="1"/>
	<rect x="11.5" y="16" fill="#FFFFFF" width="1" height="1"/>
	<rect x="10.5" y="16" fill="#FFFF00" width="1" height="1"/>
	<rect x="9.5" y="16" fill="#FFFFFF" width="1" height="1"/>
	<rect x="8.5" y="16" fill="#FFFF00" width="1" height="1"/>
	<rect x="7.5" y="16" fill="#FFFFFF" width="1" height="1"/>
	<rect x="6.5" y="16" fill="#FFFF00" width="1" height="1"/>
	<rect x="5.5" y="16" fill="#FFFFFF" width="1" height="1"/>
	<rect x="4.5" y="16" fill="#FFFF00" width="1" height="1"/>
	<rect x="3.5" y="16" width="1" height="1"/>
	<rect x="27.5" y="15" width="1" height="1"/>
	<rect x="26.5" y="15" fill="#808080" width="1" height="1"/>
	<rect x="25.5" y="15" fill="#FFFF00" width="1" height="1"/>
	<rect x="24.5" y="15" fill="#FFFFFF" width="1" height="1"/>
	<rect x="23.5" y="15" fill="#FFFF00" width="1" height="1"/>
	<rect x="22.5" y="15" fill="#FFFFFF" width="1" height="1"/>
	<rect x="21.5" y="15" fill="#FFFF00" width="1" height="1"/>
	<rect x="20.5" y="15" fill="#FFFFFF" width="1" height="1"/>
	<rect x="19.5" y="15" fill="#FFFF00" width="1" height="1"/>
	<rect x="18.5" y="15" fill="#FFFFFF" width="1" height="1"/>
	<rect x="17.5" y="15" fill="#FFFF00" width="1" height="1"/>
	<rect x="16.5" y="15" fill="#FFFFFF" width="1" height="1"/>
	<rect x="15.5" y="15" fill="#808000" width="1" height="1"/>
	<rect x="14.5" y="15" fill="#FFFFFF" width="1" height="1"/>
	<rect x="13.5" y="15" fill="#FFFF00" width="1" height="1"/>
	<rect x="12.5" y="15" fill="#FFFFFF" width="1" height="1"/>
	<rect x="11.5" y="15" fill="#FFFF00" width="1" height="1"/>
	<rect x="10.5" y="15" fill="#FFFFFF" width="1" height="1"/>
	<rect x="9.5" y="15" fill="#FFFF00" width="1" height="1"/>
	<rect x="8.5" y="15" fill="#FFFFFF" width="1" height="1"/>
	<rect x="7.5" y="15" fill="#FFFF00" width="1" height="1"/>
	<rect x="6.5" y="15" fill="#FFFFFF" width="1" height="1"/>
	<rect x="5.5" y="15" fill="#FFFF00" width="1" height="1"/>
	<rect x="4.5" y="15" fill="#FFFFFF" width="1" height="1"/>
	<rect x="3.5" y="15" width="1" height="1"/>
	<rect x="27.5" y="14" width="1" height="1"/>
	<rect x="26.5" y="14" fill="#808080" width="1" height="1"/>
	<rect x="25.5" y="14" fill="#FFFFFF" width="1" height="1"/>
	<rect x="24.5" y="14" fill="#FFFF00" width="1" height="1"/>
	<rect x="23.5" y="14" fill="#FFFFFF" width="1" height="1"/>
	<rect x="22.5" y="14" fill="#FFFF00" width="1" height="1"/>
	<rect x="21.5" y="14" fill="#FFFFFF" width="1" height="1"/>
	<rect x="20.5" y="14" fill="#FFFF00" width="1" height="1"/>
	<rect x="19.5" y="14" fill="#FFFFFF" width="1" height="1"/>
	<rect x="18.5" y="14" fill="#FFFF00" width="1" height="1"/>
	<rect x="17.5" y="14" fill="#FFFFFF" width="1" height="1"/>
	<rect x="16.5" y="14" fill="#FFFF00" width="1" height="1"/>
	<rect x="15.5" y="14" fill="#808000" width="1" height="1"/>
	<rect x="14.5" y="14" fill="#FFFF00" width="1" height="1"/>
	<rect x="13.5" y="14" fill="#FFFFFF" width="1" height="1"/>
	<rect x="12.5" y="14" fill="#FFFF00" width="1" height="1"/>
	<rect x="11.5" y="14" fill="#FFFFFF" width="1" height="1"/>
	<rect x="10.5" y="14" fill="#FFFF00" width="1" height="1"/>
	<rect x="9.5" y="14" fill="#FFFFFF" width="1" height="1"/>
	<rect x="8.5" y="14" fill="#FFFF00" width="1" height="1"/>
	<rect x="7.5" y="14" fill="#FFFFFF" width="1" height="1"/>
	<rect x="6.5" y="14" fill="#FFFF00" width="1" height="1"/>
	<rect x="5.5" y="14" fill="#FFFFFF" width="1" height="1"/>
	<rect x="4.5" y="14" fill="#FFFF00" width="1" height="1"/>
	<rect x="3.5" y="14" width="1" height="1"/>
	<rect x="27.5" y="13" width="1" height="1"/>
	<rect x="26.5" y="13" fill="#808080" width="1" height="1"/>
	<rect x="25.5" y="13" fill="#FFFF00" width="1" height="1"/>
	<rect x="24.5" y="13" fill="#FFFFFF" width="1" height="1"/>
	<rect x="23.5" y="13" fill="#FFFF00" width="1" height="1"/>
	<rect x="22.5" y="13" fill="#FFFFFF" width="1" height="1"/>
	<rect x="21.5" y="13" fill="#FFFF00" width="1" height="1"/>
	<rect x="20.5" y="13" fill="#FFFFFF" width="1" height="1"/>
	<rect x="19.5" y="13" fill="#FFFF00" width="1" height="1"/>
	<rect x="18.5" y="13" fill="#FFFFFF" width="1" height="1"/>
	<rect x="17.5" y="13" fill="#FFFF00" width="1" height="1"/>
	<rect x="16.5" y="13" fill="#FFFFFF" width="1" height="1"/>
	<rect x="15.5" y="13" fill="#808000" width="1" height="1"/>
	<rect x="14.5" y="13" fill="#FFFFFF" width="1" height="1"/>
	<rect x="13.5" y="13" fill="#FFFF00" width="1" height="1"/>
	<rect x="12.5" y="13" fill="#FFFFFF" width="1" height="1"/>
	<rect x="11.5" y="13" fill="#FFFF00" width="1" height="1"/>
	<rect x="10.5" y="13" fill="#FFFFFF" width="1" height="1"/>
	<rect x="9.5" y="13" fill="#FFFF00" width="1" height="1"/>
	<rect x="8.5" y="13" fill="#FFFFFF" width="1" height="1"/>
	<rect x="7.5" y="13" fill="#FFFF00" width="1" height="1"/>
	<rect x="6.5" y="13" fill="#FFFFFF" width="1" height="1"/>
	<rect x="5.5" y="13" fill="#FFFF00" width="1" height="1"/>
	<rect x="4.5" y="13" fill="#FFFFFF" width="1" height="1"/>
	<rect x="3.5" y="13" width="1" height="1"/>
	<rect x="27.5" y="12" width="1" height="1"/>
	<rect x="26.5" y="12" fill="#808080" width="1" height="1"/>
	<rect x="25.5" y="12" fill="#FFFFFF" width="1" height="1"/>
	<rect x="24.5" y="12" fill="#FFFF00" width="1" height="1"/>
	<rect x="23.5" y="12" fill="#FFFFFF" width="1" height="1"/>
	<rect x="22.5" y="12" fill="#FFFF00" width="1" height="1"/>
	<rect x="21.5" y="12" fill="#FFFFFF" width="1" height="1"/>
	<rect x="20.5" y="12" fill="#FFFF00" width="1" height="1"/>
	<rect x="19.5" y="12" fill="#FFFFFF" width="1" height="1"/>
	<rect x="18.5" y="12" fill="#FFFF00" width="1" height="1"/>
	<rect x="17.5" y="12" fill="#FFFFFF" width="1" height="1"/>
	<rect x="16.5" y="12" fill="#FFFF00" width="1" height="1"/>
	<rect x="15.5" y="12" fill="#808000" width="1" height="1"/>
	<rect x="14.5" y="12" fill="#FFFF00" width="1" height="1"/>
	<rect x="13.5" y="12" fill="#FFFFFF" width="1" height="1"/>
	<rect x="12.5" y="12" fill="#FFFF00" width="1" height="1"/>
	<rect x="11.5" y="12" fill="#FFFFFF" width="1" height="1"/>
	<rect x="10.5" y="12" fill="#FFFF00" width="1" height="1"/>
	<rect x="9.5" y="12" fill="#FFFFFF" width="1" height="1"/>
	<rect x="8.5" y="12" fill="#FFFF00" width="1" height="1"/>
	<rect x="7.5" y="12" fill="#FFFFFF" width="1" height="1"/>
	<rect x="6.5" y="12" fill="#FFFF00" width="1" height="1"/>
	<rect x="5.5" y="12" fill="#FFFFFF" width="1" height="1"/>
	<rect x="4.5" y="12" fill="#FFFF00" width="1" height="1"/>
	<rect x="3.5" y="12" width="1" height="1"/>
	<rect x="27.5" y="11" width="1" height="1"/>
	<rect x="26.5" y="11" fill="#808080" width="1" height="1"/>
	<rect x="25.5" y="11" fill="#FFFF00" width="1" height="1"/>
	<rect x="24.5" y="11" fill="#FFFFFF" width="1" height="1"/>
	<rect x="23.5" y="11" fill="#FFFF00" width="1" height="1"/>
	<rect x="22.5" y="11" fill="#FFFFFF" width="1" height="1"/>
	<rect x="21.5" y="11" fill="#FFFF00" width="1" height="1"/>
	<rect x="20.5" y="11" fill="#FFFFFF" width="1" height="1"/>
	<rect x="19.5" y="11" fill="#FFFF00" width="1" height="1"/>
	<rect x="18.5" y="11" fill="#FFFFFF" width="1" height="1"/>
	<rect x="17.5" y="11" fill="#FFFF00" width="1" height="1"/>
	<rect x="16.5" y="11" fill="#FFFFFF" width="1" height="1"/>
	<rect x="15.5" y="11" fill="#808000" width="1" height="1"/>
	<rect x="14.5" y="11" fill="#FFFFFF" width="1" height="1"/>
	<rect x="13.5" y="11" fill="#FFFF00" width="1" height="1"/>
	<rect x="12.5" y="11" fill="#FFFFFF" width="1" height="1"/>
	<rect x="11.5" y="11" fill="#FFFF00" width="1" height="1"/>
	<rect x="10.5" y="11" fill="#FFFFFF" width="1" height="1"/>
	<rect x="9.5" y="11" fill="#FFFF00" width="1" height="1"/>
	<rect x="8.5" y="11" fill="#FFFFFF" width="1" height="1"/>
	<rect x="7.5" y="11" fill="#FFFF00" width="1" height="1"/>
	<rect x="6.5" y="11" fill="#FFFFFF" width="1" height="1"/>
	<rect x="5.5" y="11" fill="#FFFF00" width="1" height="1"/>
	<rect x="4.5" y="11" fill="#FFFFFF" width="1" height="1"/>
	<rect x="3.5" y="11" width="1" height="1"/>
	<rect x="27.5" y="10" width="1" height="1"/>
	<rect x="26.5" y="10" fill="#808080" width="1" height="1"/>
	<rect x="25.5" y="10" fill="#FFFFFF" width="1" height="1"/>
	<rect x="24.5" y="10" fill="#FFFF00" width="1" height="1"/>
	<rect x="23.5" y="10" fill="#FFFFFF" width="1" height="1"/>
	<rect x="22.5" y="10" fill="#FFFF00" width="1" height="1"/>
	<rect x="21.5" y="10" fill="#FFFFFF" width="1" height="1"/>
	<rect x="20.5" y="10" fill="#FFFF00" width="1" height="1"/>
	<rect x="19.5" y="10" fill="#FFFFFF" width="1" height="1"/>
	<rect x="18.5" y="10" fill="#FFFF00" width="1" height="1"/>
	<rect x="17.5" y="10" fill="#FFFFFF" width="1" height="1"/>
	<rect x="16.5" y="10" fill="#808080" width="1" height="1"/>
	<rect x="15.5" y="10" width="1" height="1"/>
	<rect x="14.5" y="10" fill="#808080" width="1" height="1"/>
	<rect x="13.5" y="10" fill="#FFFFFF" width="1" height="1"/>
	<rect x="12.5" y="10" fill="#FFFF00" width="1" height="1"/>
	<rect x="11.5" y="10" fill="#FFFFFF" width="1" height="1"/>
	<rect x="10.5" y="10" fill="#FFFF00" width="1" height="1"/>
	<rect x="9.5" y="10" fill="#FFFFFF" width="1" height="1"/>
	<rect x="8.5" y="10" fill="#FFFF00" width="1" height="1"/>
	<rect x="7.5" y="10" fill="#FFFFFF" width="1" height="1"/>
	<rect x="6.5" y="10" fill="#FFFF00" width="1" height="1"/>
	<rect x="5.5" y="10" fill="#FFFFFF" width="1" height="1"/>
	<rect x="4.5" y="10" fill="#FFFF00" width="1" height="1"/>
	<rect x="3.5" y="10" width="1" height="1"/>
	<rect x="27.5" y="9" width="1" height="1"/>
	<rect x="26.5" y="9" fill="#808080" width="1" height="1"/>
	<rect x="25.5" y="9" fill="#FFFF00" width="1" height="1"/>
	<rect x="24.5" y="9" fill="#FFFFFF" width="1" height="1"/>
	<rect x="23.5" y="9" fill="#FFFF00" width="1" height="1"/>
	<rect x="22.5" y="9" fill="#FFFFFF" width="1" height="1"/>
	<rect x="21.5" y="9" fill="#FFFF00" width="1" height="1"/>
	<rect x="20.5" y="9" fill="#FFFFFF" width="1" height="1"/>
	<rect x="19.5" y="9" fill="#FFFF00" width="1" height="1"/>
	<rect x="18.5" y="9" fill="#FFFFFF" width="1" height="1"/>
	<rect x="17.5" y="9" fill="#FFFF00" width="1" height="1"/>
	<rect x="16.5" y="9" width="1" height="1"/>
	<rect x="15.5" y="9" fill="#FFFFFF" width="1" height="1"/>
	<rect x="14.5" y="9" width="1" height="1"/>
	<rect x="13.5" y="9" fill="#FFFF00" width="1" height="1"/>
	<rect x="12.5" y="9" fill="#FFFFFF" width="1" height="1"/>
	<rect x="11.5" y="9" fill="#FFFF00" width="1" height="1"/>
	<rect x="10.5" y="9" fill="#FFFFFF" width="1" height="1"/>
	<rect x="9.5" y="9" fill="#FFFF00" width="1" height="1"/>
	<rect x="8.5" y="9" fill="#FFFFFF" width="1" height="1"/>
	<rect x="7.5" y="9" fill="#FFFF00" width="1" height="1"/>
	<rect x="6.5" y="9" fill="#FFFFFF" width="1" height="1"/>
	<rect x="5.5" y="9" fill="#FFFF00" width="1" height="1"/>
	<rect x="4.5" y="9" fill="#FFFFFF" width="1" height="1"/>
	<rect x="3.5" y="9" width="1" height="1"/>
	<rect x="27.5" y="8" width="1" height="1"/>
	<rect x="26.5" y="8" fill="#808080" width="1" height="1"/>
	<rect x="25.5" y="8" fill="#FFFFFF" width="1" height="1"/>
	<rect x="24.5" y="8" fill="#FFFF00" width="1" height="1"/>
	<rect x="23.5" y="8" fill="#FFFFFF" width="1" height="1"/>
	<rect x="22.5" y="8" fill="#FFFF00" width="1" height="1"/>
	<rect x="21.5" y="8" fill="#FFFFFF" width="1" height="1"/>
	<rect x="20.5" y="8" fill="#FFFF00" width="1" height="1"/>
	<rect x="19.5" y="8" fill="#FFFFFF" width="1" height="1"/>
	<rect x="18.5" y="8" fill="#FFFF00" width="1" height="1"/>
	<rect x="17.5" y="8" fill="#FFFFFF" width="1" height="1"/>
	<rect x="16.5" y="8" fill="#808080" width="1" height="1"/>
	<rect x="15.5" y="8" width="1" height="1"/>
	<rect x="14.5" y="8" fill="#808080" width="1" height="1"/>
	<rect x="13.5" y="8" fill="#FFFFFF" width="1" height="1"/>
	<rect x="12.5" y="8" fill="#FFFF00" width="1" height="1"/>
	<rect x="11.5" y="8" fill="#FFFFFF" width="1" height="1"/>
	<rect x="10.5" y="8" fill="#FFFF00" width="1" height="1"/>
	<rect x="9.5" y="8" fill="#FFFFFF" width="1" height="1"/>
	<rect x="8.5" y="8" fill="#FFFF00" width="1" height="1"/>
	<rect x="7.5" y="8" fill="#FFFFFF" width="1" height="1"/>
	<rect x="6.5" y="8" fill="#FFFF00" width="1" height="1"/>
	<rect x="5.5" y="8" fill="#FFFFFF" width="1" height="1"/>
	<rect x="4.5" y="8" fill="#FFFF00" width="1" height="1"/>
	<rect x="3.5" y="8" width="1" height="1"/>
	<rect x="27.5" y="7" width="1" height="1"/>
	<rect x="26.5" y="7" fill="#808080" width="1" height="1"/>
	<rect x="25.5" y="7" fill="#FFFF00" width="1" height="1"/>
	<rect x="24.5" y="7" fill="#C0C0C0" width="1" height="1"/>
	<rect x="23.5" y="7" fill="#C0C0C0" width="1" height="1"/>
	<rect x="22.5" y="7" fill="#C0C0C0" width="1" height="1"/>
	<rect x="21.5" y="7" fill="#C0C0C0" width="1" height="1"/>
	<rect x="20.5" y="7" fill="#C0C0C0" width="1" height="1"/>
	<rect x="19.5" y="7" fill="#C0C0C0" width="1" height="1"/>
	<rect x="18.5" y="7" fill="#C0C0C0" width="1" height="1"/>
	<rect x="17.5" y="7" fill="#C0C0C0" width="1" height="1"/>
	<rect x="16.5" y="7" fill="#C0C0C0" width="1" height="1"/>
	<rect x="15.5" y="7" width="1" height="1"/>
	<rect x="14.5" y="7" fill="#C0C0C0" width="1" height="1"/>
	<rect x="13.5" y="7" fill="#C0C0C0" width="1" height="1"/>
	<rect x="12.5" y="7" fill="#C0C0C0" width="1" height="1"/>
	<rect x="11.5" y="7" fill="#C0C0C0" width="1" height="1"/>
	<rect x="10.5" y="7" fill="#C0C0C0" width="1" height="1"/>
	<rect x="9.5" y="7" fill="#C0C0C0" width="1" height="1"/>
	<rect x="8.5" y="7" fill="#C0C0C0" width="1" height="1"/>
	<rect x="7.5" y="7" fill="#C0C0C0" width="1" height="1"/>
	<rect x="6.5" y="7" fill="#FFFFFF" width="1" height="1"/>
	<rect x="5.5" y="7" fill="#FFFF00" width="1" height="1"/>
	<rect x="4.5" y="7" fill="#FFFFFF" width="1" height="1"/>
	<rect x="3.5" y="7" width="1" height="1"/>
	<rect x="27.5" y="6" width="1" height="1"/>
	<rect x="26.5" y="6" fill="#808080" width="1" height="1"/>
	<rect x="25.5" y="6" fill="#C0C0C0" width="1" height="1"/>
	<rect x="24.5" y="6" fill="#808000" width="1" height="1"/>
	<rect x="23.5" y="6" fill="#808000" width="1" height="1"/>
	<rect x="22.5" y="6" fill="#808000" width="1" height="1"/>
	<rect x="21.5" y="6" fill="#808000" width="1" height="1"/>
	<rect x="20.5" y="6" fill="#808000" width="1" height="1"/>
	<rect x="19.5" y="6" fill="#808000" width="1" height="1"/>
	<rect x="18.5" y="6" fill="#808000" width="1" height="1"/>
	<rect x="17.5" y="6" fill="#808000" width="1" height="1"/>
	<rect x="16.5" y="6" fill="#808000" width="1" height="1"/>
	<rect x="15.5" y="6" width="1" height="1"/>
	<rect x="14.5" y="6" fill="#808000" width="1" height="1"/>
	<rect x="13.5" y="6" fill="#808000" width="1" height="1"/>
	<rect x="12.5" y="6" fill="#808000" width="1" height="1"/>
	<rect x="11.5" y="6" fill="#808000" width="1" height="1"/>
	<rect x="10.5" y="6" fill="#808000" width="1" height="1"/>
	<rect x="9.5" y="6" fill="#808000" width="1" height="1"/>
	<rect x="8.5" y="6" fill="#808000" width="1" height="1"/>
	<rect x="7.5" y="6" fill="#808000" width="1" height="1"/>
	<rect x="6.5" y="6" fill="#808000" width="1" height="1"/>
	<rect x="5.5" y="6" fill="#FFFF00" width="1" height="1"/>
	<rect x="4.5" y="6" fill="#FFFF00" width="1" height="1"/>
	<rect x="3.5" y="6" width="1" height="1"/>
	<rect x="27.5" y="5" width="1" height="1"/>
	<rect x="26.5" y="5" fill="#808080" width="1" height="1"/>
	<rect x="25.5" y="5" fill="#808000" width="1" height="1"/>
	<rect x="24.5" y="5" fill="#FFFFFF" width="1" height="1"/>
	<rect x="23.5" y="5" fill="#FFFF00" width="1" height="1"/>
	<rect x="22.5" y="5" fill="#FFFFFF" width="1" height="1"/>
	<rect x="21.5" y="5" fill="#FFFF00" width="1" height="1"/>
	<rect x="20.5" y="5" fill="#FFFFFF" width="1" height="1"/>
	<rect x="19.5" y="5" fill="#FFFF00" width="1" height="1"/>
	<rect x="18.5" y="5" fill="#FFFFFF" width="1" height="1"/>
	<rect x="17.5" y="5" fill="#FFFF00" width="1" height="1"/>
	<rect x="16.5" y="5" fill="#808080" width="1" height="1"/>
	<rect x="15.5" y="5" width="1" height="1"/>
	<rect x="14.5" y="5" fill="#808080" width="1" height="1"/>
	<rect x="13.5" y="5" fill="#FFFF00" width="1" height="1"/>
	<rect x="12.5" y="5" fill="#FFFFFF" width="1" height="1"/>
	<rect x="11.5" y="5" fill="#FFFF00" width="1" height="1"/>
	<rect x="10.5" y="5" fill="#FFFFFF" width="1" height="1"/>
	<rect x="9.5" y="5" fill="#FFFF00" width="1" height="1"/>
	<rect x="8.5" y="5" fill="#FFFFFF" width="1" height="1"/>
	<rect x="7.5" y="5" fill="#FFFF00" width="1" height="1"/>
	<rect x="6.5" y="5" fill="#FFFFFF" width="1" height="1"/>
	<rect x="5.5" y="5" fill="#808000" width="1" height="1"/>
	<rect x="4.5" y="5" fill="#FFFFFF" width="1" height="1"/>
	<rect x="3.5" y="5" width="1" height="1"/>
	<rect x="27.5" y="4" width="1" height="1"/>
	<rect x="26.5" y="4" fill="#808000" width="1" height="1"/>
	<rect x="25.5" y="4" fill="#FFFFFF" width="1" height="1"/>
	<rect x="24.5" y="4" fill="#FFFF00" width="1" height="1"/>
	<rect x="23.5" y="4" fill="#FFFFFF" width="1" height="1"/>
	<rect x="22.5" y="4" fill="#FFFF00" width="1" height="1"/>
	<rect x="21.5" y="4" fill="#FFFFFF" width="1" height="1"/>
	<rect x="20.5" y="4" fill="#FFFF00" width="1" height="1"/>
	<rect x="19.5" y="4" fill="#FFFFFF" width="1" height="1"/>
	<rect x="18.5" y="4" fill="#FFFF00" width="1" height="1"/>
	<rect x="17.5" y="4" fill="#FFFFFF" width="1" height="1"/>
	<rect x="16.5" y="4" width="1" height="1"/>
	<rect x="15.5" y="4" fill="#FFFFFF" width="1" height="1"/>
	<rect x="14.5" y="4" width="1" height="1"/>
	<rect x="13.5" y="4" fill="#FFFFFF" width="1" height="1"/>
	<rect x="12.5" y="4" fill="#FFFF00" width="1" height="1"/>
	<rect x="11.5" y="4" fill="#FFFFFF" width="1" height="1"/>
	<rect x="10.5" y="4" fill="#FFFF00" width="1" height="1"/>
	<rect x="9.5" y="4" fill="#FFFFFF" width="1" height="1"/>
	<rect x="8.5" y="4" fill="#FFFF00" width="1" height="1"/>
	<rect x="7.5" y="4" fill="#FFFFFF" width="1" height="1"/>
	<rect x="6.5" y="4" fill="#FFFF00" width="1" height="1"/>
	<rect x="5.5" y="4" fill="#FFFFFF" width="1" height="1"/>
	<rect x="4.5" y="4" fill="#808000" width="1" height="1"/>
	<rect x="3.5" y="4" width="1" height="1"/>
	<rect x="27.5" y="3" width="1" height="1"/>
	<rect x="26.5" y="3" fill="#808000" width="1" height="1"/>
	<rect x="25.5" y="3" fill="#FFFF00" width="1" height="1"/>
	<rect x="24.5" y="3" fill="#FFFFFF" width="1" height="1"/>
	<rect x="23.5" y="3" fill="#FFFF00" width="1" height="1"/>
	<rect x="22.5" y="3" fill="#FFFFFF" width="1" height="1"/>
	<rect x="21.5" y="3" fill="#FFFF00" width="1" height="1"/>
	<rect x="20.5" y="3" fill="#FFFFFF" width="1" height="1"/>
	<rect x="19.5" y="3" fill="#FFFF00" width="1" height="1"/>
	<rect x="18.5" y="3" fill="#FFFFFF" width="1" height="1"/>
	<rect x="17.5" y="3" fill="#FFFF00" width="1" height="1"/>
	<rect x="16.5" y="3" fill="#808080" width="1" height="1"/>
	<rect x="15.5" y="3" width="1" height="1"/>
	<rect x="14.5" y="3" fill="#808080" width="1" height="1"/>
	<rect x="13.5" y="3" fill="#FFFF00" width="1" height="1"/>
	<rect x="12.5" y="3" fill="#FFFFFF" width="1" height="1"/>
	<rect x="11.5" y="3" fill="#FFFF00" width="1" height="1"/>
	<rect x="10.5" y="3" fill="#FFFFFF" width="1" height="1"/>
	<rect x="9.5" y="3" fill="#FFFF00" width="1" height="1"/>
	<rect x="8.5" y="3" fill="#FFFFFF" width="1" height="1"/>
	<rect x="7.5" y="3" fill="#FFFF00" width="1" height="1"/>
	<rect x="6.5" y="3" fill="#FFFFFF" width="1" height="1"/>
	<rect x="5.5" y="3" fill="#FFFF00" width="1" height="1"/>
	<rect x="4.5" y="3" fill="#808000" width="1" height="1"/>
	<rect x="3.5" y="3" width="1" height="1"/>
	<rect x="27.5" y="2" width="1" height="1"/>
	<rect x="26.5" y="2" fill="#FFFF00" width="1" height="1"/>
	<rect x="25.5" y="2" fill="#FFFFFF" width="1" height="1"/>
	<rect x="24.5" y="2" fill="#FFFF00" width="1" height="1"/>
	<rect x="23.5" y="2" fill="#FFFFFF" width="1" height="1"/>
	<rect x="22.5" y="2" fill="#FFFF00" width="1" height="1"/>
	<rect x="21.5" y="2" fill="#FFFFFF" width="1" height="1"/>
	<rect x="20.5" y="2" fill="#FFFF00" width="1" height="1"/>
	<rect x="19.5" y="2" fill="#FFFFFF" width="1" height="1"/>
	<rect x="18.5" y="2" fill="#FFFF00" width="1" height="1"/>
	<rect x="17.5" y="2" fill="#FFFFFF" width="1" height="1"/>
	<rect x="16.5" y="2" fill="#FFFF00" width="1" height="1"/>
	<rect x="15.5" y="2" fill="#FFFFFF" width="1" height="1"/>
	<rect x="14.5" y="2" fill="#FFFF00" width="1" height="1"/>
	<rect x="13.5" y="2" fill="#FFFFFF" width="1" height="1"/>
	<rect x="12.5" y="2" fill="#FFFF00" width="1" height="1"/>
	<rect x="11.5" y="2" fill="#FFFFFF" width="1" height="1"/>
	<rect x="10.5" y="2" fill="#FFFF00" width="1" height="1"/>
	<rect x="9.5" y="2" fill="#FFFFFF" width="1" height="1"/>
	<rect x="8.5" y="2" fill="#FFFF00" width="1" height="1"/>
	<rect x="7.5" y="2" fill="#FFFFFF" width="1" height="1"/>
	<rect x="6.5" y="2" fill="#FFFF00" width="1" height="1"/>
	<rect x="5.5" y="2" fill="#FFFFFF" width="1" height="1"/>
	<rect x="4.5" y="2" fill="#FFFF00" width="1" height="1"/>
	<rect x="3.5" y="2" width="1" height="1"/>
	<rect x="27.5" y="1" width="1" height="1"/>
	<rect x="26.5" y="1" fill="#FFFFFF" width="1" height="1"/>
	<rect x="25.5" y="1" fill="#FFFF00" width="1" height="1"/>
	<rect x="24.5" y="1" fill="#FFFFFF" width="1" height="1"/>
	<rect x="23.5" y="1" fill="#FFFF00" width="1" height="1"/>
	<rect x="22.5" y="1" fill="#FFFFFF" width="1" height="1"/>
	<rect x="21.5" y="1" fill="#FFFF00" width="1" height="1"/>
	<rect x="20.5" y="1" fill="#FFFFFF" width="1" height="1"/>
	<rect x="19.5" y="1" fill="#FFFF00" width="1" height="1"/>
	<rect x="18.5" y="1" fill="#FFFFFF" width="1" height="1"/>
	<rect x="17.5" y="1" fill="#FFFF00" width="1" height="1"/>
	<rect x="16.5" y="1" fill="#FFFFFF" width="1" height="1"/>
	<rect x="15.5" y="1" fill="#FFFF00" width="1" height="1"/>
	<rect x="14.5" y="1" fill="#FFFFFF" width="1" height="1"/>
	<rect x="13.5" y="1" fill="#FFFF00" width="1" height="1"/>
	<rect x="12.5" y="1" fill="#FFFFFF" width="1" height="1"/>
	<rect x="11.5" y="1" fill="#FFFF00" width="1" height="1"/>
	<rect x="10.5" y="1" fill="#FFFFFF" width="1" height="1"/>
	<rect x="9.5" y="1" fill="#FFFF00" width="1" height="1"/>
	<rect x="8.5" y="1" fill="#FFFFFF" width="1" height="1"/>
	<rect x="7.5" y="1" fill="#FFFF00" width="1" height="1"/>
	<rect x="6.5" y="1" fill="#FFFFFF" width="1" height="1"/>
	<rect x="5.5" y="1" fill="#FFFF00" width="1" height="1"/>
	<rect x="4.5" y="1" fill="#FFFFFF" width="1" height="1"/>
	<rect x="3.5" y="1" width="1" height="1"/>
	<rect x="27.5" width="1" height="1"/>
	<rect x="26.5" width="1" height="1"/>
	<rect x="25.5" width="1" height="1"/>
	<rect x="24.5" width="1" height="1"/>
	<rect x="23.5" width="1" height="1"/>
	<rect x="22.5" width="1" height="1"/>
	<rect x="21.5" width="1" height="1"/>
	<rect x="20.5" width="1" height="1"/>
	<rect x="19.5" width="1" height="1"/>
	<rect x="18.5" width="1" height="1"/>
	<rect x="17.5" width="1" height="1"/>
	<rect x="16.5" width="1" height="1"/>
	<rect x="15.5" width="1" height="1"/>
	<rect x="14.5" width="1" height="1"/>
	<rect x="13.5" width="1" height="1"/>
	<rect x="12.5" width="1" height="1"/>
	<rect x="11.5" width="1" height="1"/>
	<rect x="10.5" width="1" height="1"/>
	<rect x="9.5" width="1" height="1"/>
	<rect x="8.5" width="1" height="1"/>
	<rect x="7.5" width="1" height="1"/>
	<rect x="6.5" width="1" height="1"/>
	<rect x="5.5" width="1" height="1"/>
	<rect x="4.5" width="1" height="1"/>
	<rect x="3.5" width="1" height="1"/>
</g>
</svg>
