<?xml version="1.0" encoding="utf-8"?>
<!DOCTYPE svg PUBLIC "-//W3C//DTD SVG 1.1//EN" "http://www.w3.org/Graphics/SVG/1.1/DTD/svg11.dtd">
<svg version="1.1" id="Layer_1" xmlns="http://www.w3.org/2000/svg" xmlns:xlink="http://www.w3.org/1999/xlink" x="0px" y="0px"
	 width="32px" height="32px" viewBox="0 0 32 32" enable-background="new 0 0 32 32" xml:space="preserve" shape-rendering="crispEdges">
<g>
	<g>
		<rect x="1" y="24.5" fill="#808000" width="25" height="1"/>
	</g>
	<g>
		<rect x="24.002" y="23.5" fill="#FFFF00" width="1" height="1"/>
		<rect x="22.002" y="23.5" fill="#FFFF00" width="1" height="1"/>
		<rect x="20.002" y="23.5" fill="#FFFF00" width="1" height="1"/>
		<rect x="18.002" y="23.5" fill="#FFFF00" width="1" height="1"/>
		<rect x="16.002" y="23.5" fill="#FFFF00" width="1" height="1"/>
		<rect x="14.002" y="23.5" fill="#FFFF00" width="1" height="1"/>
		<rect x="12.002" y="23.5" fill="#FFFF00" width="1" height="1"/>
		<rect x="10.002" y="23.5" fill="#FFFF00" width="1" height="1"/>
		<rect x="8.002" y="23.5" fill="#FFFF00" width="1" height="1"/>
		<rect x="6.002" y="23.5" fill="#FFFF00" width="1" height="1"/>
		<rect x="4.002" y="23.5" fill="#FFFF00" width="1" height="1"/>
		<rect x="2.002" y="23.5" fill="#FFFF00" width="1" height="1"/>
		<rect x="25" y="22.5" fill="#FFFF00" width="1" height="1"/>
		<rect x="23" y="22.5" fill="#FFFF00" width="1" height="1"/>
		<rect x="21" y="22.5" fill="#FFFF00" width="1" height="1"/>
		<rect x="19" y="22.5" fill="#FFFF00" width="1" height="1"/>
		<rect x="17" y="22.5" fill="#FFFF00" width="1" height="1"/>
		<rect x="15" y="22.5" fill="#FFFF00" width="1" height="1"/>
		<rect x="13" y="22.5" fill="#FFFF00" width="1" height="1"/>
		<rect x="11" y="22.5" fill="#FFFF00" width="1" height="1"/>
		<rect x="9" y="22.5" fill="#FFFF00" width="1" height="1"/>
		<rect x="7" y="22.5" fill="#FFFF00" width="1" height="1"/>
		<rect x="5" y="22.5" fill="#FFFF00" width="1" height="1"/>
		<rect x="3" y="22.5" fill="#FFFF00" width="1" height="1"/>
		<rect x="1" y="22.5" fill="#FFFF00" width="1" height="1"/>
	</g>
	<g>
		<rect x="5" y="26.5" fill="#C0C0C0" width="21" height="1"/>
		<rect x="30" y="22.5" fill="#C0C0C0" width="1" height="3"/>
		<rect x="22" y="20.5" fill="#C0C0C0" width="1" height="1"/>
		<rect x="21.002" y="19.5" fill="#C0C0C0" width="1" height="1"/>
		<rect x="27" y="18.5" fill="#C0C0C0" width="1" height="11"/>
		<rect x="20.002" y="18.5" fill="#C0C0C0" width="1" height="1"/>
		<rect x="19.002" y="17.5" fill="#C0C0C0" width="1" height="1"/>
		<rect x="18.002" y="16.5" fill="#C0C0C0" width="1" height="1"/>
		<rect x="12" y="16.5" fill="#C0C0C0" width="1" height="2"/>
		<rect x="17.002" y="15.5" fill="#C0C0C0" width="1" height="1"/>
		<rect x="19.002" y="14.5" fill="#C0C0C0" width="1" height="1"/>
		<rect x="16.002" y="14.5" fill="#C0C0C0" width="1" height="1"/>
		<rect x="20.998" y="13.5" fill="#C0C0C0" width="2" height="1"/>
		<rect x="15.002" y="13.5" fill="#C0C0C0" width="1" height="1"/>
		<rect x="23.002" y="12.5" fill="#C0C0C0" width="1" height="1"/>
		<rect x="14.002" y="12.5" fill="#C0C0C0" width="1" height="1"/>
		<rect x="24.002" y="11.5" fill="#C0C0C0" width="1" height="1"/>
		<rect x="13.002" y="11.5" fill="#C0C0C0" width="1" height="1"/>
		<path fill="#C0C0C0" d="M20,20.5v-1h-1v-1h-1v-1h-1v-1h-1v-1h-1v-1h-1v-1h-1v-1h-1v-1h-1v-1h-1v11h11v-1H20z M18,20.5h-7v-7h1v1h1
			v1h1v1h1v1h1v1h1v1h1V20.5z"/>
		<rect x="25" y="10.5" fill="#C0C0C0" width="1" height="1"/>
		<rect x="12.002" y="10.5" fill="#C0C0C0" width="1" height="1"/>
		<rect x="11.002" y="9.5" fill="#C0C0C0" width="1" height="1"/>
		<rect x="10" y="8.5" fill="#C0C0C0" width="1" height="1"/>
	</g>
	<g>
		<rect x="22.002" y="11.5" fill="#008080" width="1" height="1"/>
		<rect x="23.002" y="10.5" fill="#008080" width="1" height="1"/>
		<rect x="24.002" y="9.5" fill="#008080" width="1" height="1"/>
		<rect x="25" y="8.5" fill="#008080" width="1" height="1"/>
		<rect x="26" y="7.5" fill="#008080" width="1" height="1"/>
		<rect x="27.002" y="6.5" fill="#008080" width="1" height="1"/>
		<rect x="28.002" y="5.5" fill="#008080" width="1" height="1"/>
		<rect x="29.002" y="4.5" fill="#008080" width="1" height="1"/>
		<rect x="30.002" y="3.5" fill="#008080" width="1" height="1"/>
	</g>
	<g>
		<rect x="20.002" y="12.5" fill="#00FFFF" width="1" height="1"/>
		<rect x="21.002" y="11.5" fill="#00FFFF" width="1" height="1"/>
		<rect x="22.002" y="10.5" fill="#00FFFF" width="1" height="1"/>
		<rect x="23.002" y="9.5" fill="#00FFFF" width="1" height="1"/>
		<rect x="24.002" y="8.5" fill="#00FFFF" width="1" height="1"/>
		<rect x="25.002" y="7.5" fill="#00FFFF" width="1" height="1"/>
		<rect x="26.002" y="6.5" fill="#00FFFF" width="1" height="1"/>
		<rect x="27.002" y="5.5" fill="#00FFFF" width="1" height="1"/>
		<rect x="28.002" y="4.5" fill="#00FFFF" width="1" height="1"/>
		<rect x="29.002" y="3.5" fill="#00FFFF" width="1" height="1"/>
		<rect x="30.002" y="2.5" fill="#00FFFF" width="1" height="1"/>
	</g>
	<g>
		<rect x="5" y="29.5" fill="#808080" width="21" height="1"/>
		<rect x="28" y="19.5" fill="#808080" width="1" height="9"/>
		<rect x="27" y="8.5" fill="#808080" width="1" height="9"/>
		<rect x="27" y="2.5" fill="#808080" width="1" height="1"/>
	</g>
	<g>
		<rect x="5" y="27.5" fill="#FFFFFF" width="21" height="1"/>
		<rect x="25" y="23.5" fill="#FFFFFF" width="1" height="1"/>
		<rect x="23.002" y="23.5" fill="#FFFFFF" width="1" height="1"/>
		<rect x="21.002" y="23.5" fill="#FFFFFF" width="1" height="1"/>
		<rect x="19.002" y="23.5" fill="#FFFFFF" width="1" height="1"/>
		<rect x="17.002" y="23.5" fill="#FFFFFF" width="1" height="1"/>
		<rect x="15.002" y="23.5" fill="#FFFFFF" width="1" height="1"/>
		<rect x="13.002" y="23.5" fill="#FFFFFF" width="1" height="1"/>
		<rect x="11.002" y="23.5" fill="#FFFFFF" width="1" height="1"/>
		<rect x="9.002" y="23.5" fill="#FFFFFF" width="1" height="1"/>
		<rect x="7.002" y="23.5" fill="#FFFFFF" width="1" height="1"/>
		<rect x="5.002" y="23.5" fill="#FFFFFF" width="1" height="1"/>
		<rect x="1" y="23.5" fill="#FFFFFF" width="1" height="1"/>
		<rect x="3.002" y="23.5" fill="#FFFFFF" width="1" height="1"/>
		<rect x="2" y="22.5" fill="#FFFFFF" width="1" height="1"/>
		<rect x="8" y="22.5" fill="#FFFFFF" width="1" height="1"/>
		<rect x="10" y="22.5" fill="#FFFFFF" width="1" height="1"/>
		<rect x="12" y="22.5" fill="#FFFFFF" width="1" height="1"/>
		<rect x="14" y="22.5" fill="#FFFFFF" width="1" height="1"/>
		<rect x="16" y="22.5" fill="#FFFFFF" width="1" height="1"/>
		<rect x="18" y="22.5" fill="#FFFFFF" width="1" height="1"/>
		<rect x="20" y="22.5" fill="#FFFFFF" width="1" height="1"/>
		<rect x="24" y="22.5" fill="#FFFFFF" width="1" height="1"/>
		<rect x="22" y="22.5" fill="#FFFFFF" width="1" height="1"/>
		<rect x="4" y="22.5" fill="#FFFFFF" width="1" height="1"/>
		<rect x="6" y="22.5" fill="#FFFFFF" width="1" height="1"/>
		<rect x="11" y="19.5" fill="#FFFFFF" width="7" height="1"/>
		<rect x="16" y="18.5" fill="#FFFFFF" width="1" height="1"/>
		<rect x="15" y="17.5" fill="#FFFFFF" width="1" height="1"/>
		<rect x="13" y="17.5" fill="#FFFFFF" width="1" height="1"/>
		<rect x="14" y="16.5" fill="#FFFFFF" width="1" height="1"/>
		<polygon fill="#FFFFFF" points="26,11.5 26,21.5 23,21.5 23,20.5 22,20.5 22,19.5 21,19.5 21,18.5 20,18.5 20,17.5 19,17.5 
			19,16.5 18,16.5 18,15.5 20,15.5 20,14.5 23,14.5 23,13.5 24,13.5 24,12.5 25,12.5 25,11.5 		"/>
		<rect x="13" y="15.5" fill="#FFFFFF" width="1" height="1"/>
		<rect x="12" y="14.5" fill="#FFFFFF" width="1" height="1"/>
		<rect x="11" y="13.5" fill="#FFFFFF" width="1" height="1"/>
		<rect x="21.002" y="10.5" fill="#FFFFFF" width="1" height="1"/>
		<rect x="22.002" y="9.5" fill="#FFFFFF" width="1" height="1"/>
		<rect x="9" y="9.5" fill="#FFFFFF" width="1" height="12"/>
		<rect x="23.002" y="8.5" fill="#FFFFFF" width="1" height="1"/>
		<rect x="24.002" y="7.5" fill="#FFFFFF" width="1" height="1"/>
		<rect x="25.002" y="6.5" fill="#FFFFFF" width="1" height="1"/>
		<rect x="26" y="5.5" fill="#FFFFFF" width="1" height="1"/>
		<rect x="27" y="4.5" fill="#FFFFFF" width="1" height="1"/>
		<rect x="28" y="3.5" fill="#FFFFFF" width="1" height="1"/>
		<rect x="29.002" y="2.5" fill="#FFFFFF" width="1" height="1"/>
		<polygon fill="#FFFFFF" points="26,2.5 26,5.5 25,5.5 25,6.5 24,6.5 24,7.5 23,7.5 23,8.5 22,8.5 22,9.5 21,9.5 21,10.5 20,10.5 
			20,12.5 19,12.5 19,14.5 18,14.5 18,15.5 17,15.5 17,14.5 16,14.5 16,13.5 15,13.5 15,12.5 14,12.5 14,11.5 13,11.5 13,10.5 
			12,10.5 12,9.5 11,9.5 11,8.5 9,8.5 9,7.5 8,7.5 8,21.5 5,21.5 5,2.5 		"/>
	</g>
	<g>
		<path d="M27,5.5v-1h1v-1h-1v-2H4v20H0v5h4v3h22v1h2v-1h-1v-21h-1v13H9v-12h1v-1H9v-1H8v14H5v-19h21v3H27z M26,28.5H5v-2h21V28.5z
			 M26,22.5v3H1v-3H26z"/>
		<rect x="28.002" y="28.5" width="1" height="1"/>
		<rect x="31.002" y="22.5" width="1" height="3"/>
		<rect x="21" y="20.5" width="1" height="1"/>
		<polygon points="30,22.5 30,25.5 31,25.5 31,26.5 30,26.5 30,28.5 29,28.5 29,19.5 30,19.5 30,21.5 31,21.5 31,22.5 		"/>
		<rect x="20.002" y="19.5" width="1" height="1"/>
		<rect x="28.002" y="18.5" width="1" height="1"/>
		<rect x="19.002" y="18.5" width="1" height="1"/>
		<rect x="27" y="17.5" width="1" height="1"/>
		<rect x="18.002" y="17.5" width="1" height="1"/>
		<rect x="17.002" y="16.5" width="1" height="1"/>
		<rect x="13.002" y="16.5" width="1" height="1"/>
		<rect x="16.002" y="15.5" width="1" height="1"/>
		<rect x="18.002" y="14.5" width="1" height="1"/>
		<rect x="15.002" y="14.5" width="1" height="1"/>
		<polygon points="16,18.5 16,19.5 11,19.5 11,14.5 12,14.5 12,15.5 13,15.5 13,16.5 12,16.5 12,18.5 14,18.5 14,17.5 15,17.5 
			15,18.5 		"/>
		<rect x="14.002" y="13.5" width="1" height="1"/>
		<rect x="21.002" y="12.5" width="2" height="1"/>
		<polygon points="21.002,13.5 21.002,14.5 19.002,14.5 19.002,12.5 20.002,12.5 20.002,13.5 		"/>
		<rect x="13.002" y="12.5" width="1" height="1"/>
		<rect x="23.002" y="11.5" width="1" height="1"/>
		<rect x="12.002" y="11.5" width="1" height="1"/>
		<rect x="24.002" y="10.5" width="1" height="1"/>
		<rect x="20.002" y="10.5" width="1" height="2"/>
		<rect x="11.002" y="10.5" width="1" height="1"/>
		<rect x="25" y="9.5" width="1" height="1"/>
		<rect x="21.002" y="9.5" width="1" height="1"/>
		<rect x="10.002" y="9.5" width="1" height="1"/>
		<rect x="22.002" y="8.5" width="1" height="1"/>
		<rect x="27.002" y="7.5" width="1" height="1"/>
		<rect x="23.002" y="7.5" width="1" height="1"/>
		<rect x="28.002" y="6.5" width="1" height="1"/>
		<rect x="24.002" y="6.5" width="1" height="1"/>
		<rect x="29.002" y="5.5" width="1" height="1"/>
		<rect x="25.002" y="5.5" width="1" height="1"/>
		<rect x="30.002" y="4.5" width="1" height="1"/>
		<rect x="31.002" y="3.5" width="1" height="1"/>
		<rect x="31.002" y="2.5" width="1" height="1"/>
		<rect x="28.002" y="2.5" width="1" height="1"/>
		<rect x="30.002" y="1.5" width="1" height="1"/>
		<rect x="29.002" y="1.5" width="1" height="1"/>
	</g>
</g>
</svg>
