<?xml version="1.0" encoding="utf-8"?>

<!DOCTYPE svg PUBLIC "-//W3C//DTD SVG 1.1//EN" "http://www.w3.org/Graphics/SVG/1.1/DTD/svg11.dtd">
<svg version="1.1" id="Layer_1" xmlns="http://www.w3.org/2000/svg" xmlns:xlink="http://www.w3.org/1999/xlink" x="0px" y="0px"
	 width="248px" height="88px" viewBox="0 0 248 88" enable-background="new 0 0 248 88" xml:space="preserve" shape-rendering="crispEdges">
<g>
	<polygon points="248,84 248,88 0,88 0,84 3,84 3,85 2,85 2,86 1,86 1,87 5,87 5,86 6,86 6,85 7,85 7,84 11,84 11,85 10,85 10,86 
		9,86 9,87 13,87 13,86 14,86 14,85 15,85 15,84 19,84 19,85 18,85 18,86 17,86 17,87 21,87 21,86 22,86 22,85 23,85 23,84 27,84 
		27,85 26,85 26,86 25,86 25,87 29,87 29,86 30,86 30,85 31,85 31,84 35,84 35,85 34,85 34,86 33,86 33,87 37,87 37,86 38,86 38,85 
		39,85 39,84 43,84 43,85 42,85 42,86 41,86 41,87 45,87 45,86 46,86 46,85 47,85 47,84 51,84 51,85 50,85 50,86 49,86 49,87 53,87 
		53,86 54,86 54,85 55,85 55,84 59,84 59,85 58,85 58,86 57,86 57,87 61,87 61,86 62,86 62,85 63,85 63,84 67,84 67,85 66,85 66,86 
		65,86 65,87 69,87 69,86 70,86 70,85 71,85 71,84 75,84 75,85 74,85 74,86 73,86 73,87 77,87 77,86 78,86 78,85 79,85 79,84 83,84 
		83,85 82,85 82,86 81,86 81,87 85,87 85,86 86,86 86,85 87,85 87,84 91,84 91,85 90,85 90,86 89,86 89,87 93,87 93,86 94,86 94,85 
		95,85 95,84 99,84 99,85 98,85 98,86 97,86 97,87 101,87 101,86 102,86 102,85 103,85 103,84 107,84 107,85 106,85 106,86 105,86 
		105,87 109,87 109,86 110,86 110,85 111,85 111,84 115,84 115,85 114,85 114,86 113,86 113,87 117,87 117,86 118,86 118,85 119,85 
		119,84 123,84 123,85 122,85 122,86 121,86 121,87 125,87 125,86 126,86 126,85 127,85 127,84 131,84 131,85 130,85 130,86 129,86 
		129,87 133,87 133,86 134,86 134,85 135,85 135,84 139,84 139,85 138,85 138,86 137,86 137,87 141,87 141,86 142,86 142,85 143,85 
		143,84 147,84 147,85 146,85 146,86 145,86 145,87 149,87 149,86 150,86 150,85 151,85 151,84 155,84 155,85 154,85 154,86 153,86 
		153,87 157,87 157,86 158,86 158,85 159,85 159,84 163,84 163,85 162,85 162,86 161,86 161,87 165,87 165,86 166,86 166,85 167,85 
		167,84 171,84 171,85 170,85 170,86 169,86 169,87 173,87 173,86 174,86 174,85 175,85 175,84 179,84 179,85 178,85 178,86 177,86 
		177,87 181,87 181,86 182,86 182,85 183,85 183,84 187,84 187,85 186,85 186,86 185,86 185,87 189,87 189,86 190,86 190,85 191,85 
		191,84 195,84 195,85 194,85 194,86 193,86 193,87 197,87 197,86 198,86 198,85 199,85 199,84 203,84 203,85 202,85 202,86 201,86 
		201,87 205,87 205,86 206,86 206,85 207,85 207,84 211,84 211,85 210,85 210,86 209,86 209,87 213,87 213,86 214,86 214,85 215,85 
		215,84 219,84 219,85 218,85 218,86 217,86 217,87 221,87 221,86 222,86 222,85 223,85 223,84 227,84 227,85 226,85 226,86 225,86 
		225,87 229,87 229,86 230,86 230,85 231,85 231,84 235,84 235,85 234,85 234,86 233,86 233,87 237,87 237,86 238,86 238,85 239,85 
		239,84 243,84 243,85 242,85 242,86 241,86 241,87 245,87 245,86 246,86 246,85 247,85 247,84 	"/>
	<g id="text_1_">
		<path d="M215,44v-2h-1v-1h-2v-1h-5v1h-2v1h-1v2h-1v5h1v2h1v1h2v1h5v-1h2v-1h1v-2h1v-5H215z M213,48h-1v1h-1v1h-3v-1h-1v-1h-1v-3h1
			v-1h1v-1h3v1h1v1h1V48z"/>
		<polygon points="149,48 149,51 148,51 148,52 147,52 147,53 142,53 142,52 141,52 141,51 140,51 140,50 141,50 141,49 143,49 
			143,50 146,50 146,48 144,48 144,47 142,47 142,46 141,46 141,45 140,45 140,42 141,42 141,41 142,41 142,40 147,40 147,41 
			148,41 148,43 147,43 147,44 146,44 146,43 143,43 143,44 144,44 144,45 146,45 146,46 148,46 148,48 		"/>
		<path d="M60,36v5h-2v-1h-4v1h-2v1h-1v2h-1v5h1v2h1v1h2v1h4v-1h2v1h3V36H60z M60,48h-1v1h-1v1h-3v-1h-1v-1h-1v-3h1v-1h1v-1h3v1h1v1
			h1V48z"/>
		<polygon points="35,36 35,50 34,50 34,51 33,51 33,52 32,52 32,53 27,53 27,52 26,52 26,51 25,51 25,50 24,50 24,36 27,36 27,49 
			28,49 28,50 31,50 31,49 32,49 32,36 		"/>
		<polygon points="197,40 197,43 195,43 195,53 192,53 192,43 190,43 190,40 192,40 192,36 195,36 195,40 		"/>
		<path d="M77,44v-2h-1v-1h-2v-1h-5v1h-2v1h-1v2h-1v5h1v2h1v1h2v1h5v-1h2v-1h1v-1h-8v-1h-1v-1h10v-4H77z M68,45v-1h1v-1h5v1h1v1H68z
			"/>
		<polygon points="228,42 228,53 225,53 225,44 224,44 224,43 222,43 222,44 221,44 221,53 218,53 218,40 221,40 221,41 222,41 
			222,40 226,40 226,41 227,41 227,42 		"/>
		<polygon points="186,44 186,43 182,43 182,44 181,44 181,45 180,45 180,48 181,48 181,49 182,49 182,50 186,50 186,49 187,49 
			187,50 189,50 189,51 188,51 188,52 186,52 186,53 181,53 181,52 179,52 179,51 178,51 178,49 177,49 177,44 178,44 178,42 
			179,42 179,41 181,41 181,40 186,40 186,41 188,41 188,42 189,42 189,43 187,43 187,44 		"/>
		<polygon points="138,42 138,53 135,53 135,44 134,44 134,43 132,43 132,44 131,44 131,53 128,53 128,40 131,40 131,41 132,41 
			132,40 136,40 136,41 137,41 137,42 		"/>
		<rect x="198" y="40" width="3" height="13"/>
		<polygon points="176,40 176,50 175,50 175,52 173,52 173,53 169,53 169,52 167,52 167,50 166,50 166,40 169,40 169,49 170,49 
			170,50 172,50 172,49 173,49 173,40 		"/>
		<polygon points="165,40 165,42 164,42 164,43 162,43 162,44 161,44 161,53 158,53 158,40 161,40 161,41 162,41 162,40 		"/>
		<path d="M125,44v-2h-1v-1h-2v-1h-5v1h-2v1h-1v2h-1v5h1v2h1v1h2v1h5v-1h2v-1h1v-2h1v-5H125z M122,48v1h-1v1h-3v-1h-1v-1h-1v-3h1v-1
			h1v-1h3v1h1v1h1v3H122z"/>
		<polygon points="87,40 87,42 86,42 86,43 84,43 84,44 83,44 83,53 80,53 80,40 83,40 83,41 84,41 84,40 		"/>
		<polygon points="48,42 48,53 45,53 45,44 44,44 44,43 42,43 42,44 41,44 41,53 38,53 38,40 41,40 41,41 42,41 42,40 46,40 46,41 
			47,41 47,42 		"/>
		<polygon points="201,36 201,38 200,38 200,39 199,39 199,38 198,38 198,36 199,36 199,35 200,35 200,36 		"/>
		<polygon points="157,40 157,43 155,43 155,53 152,53 152,43 150,43 150,40 152,40 152,36 155,36 155,40 		"/>
		<polygon points="109,41 109,40 107,40 107,39 102,39 102,40 100,40 100,41 99,41 99,42 98,42 98,47 99,47 99,48 100,48 100,49 
			102,49 102,50 107,50 107,49 109,49 109,48 110,48 110,49 112,49 112,50 111,50 111,51 110,51 110,52 108,52 108,53 101,53 
			101,52 99,52 99,51 98,51 98,50 97,50 97,49 96,49 96,47 95,47 95,42 96,42 96,40 97,40 97,39 98,39 98,38 99,38 99,37 101,37 
			101,36 107,36 107,37 110,37 110,38 111,38 111,39 112,39 112,40 111,40 111,41 		"/>
	</g>
	<g id="text">
		<path fill="#FFFFFF" d="M213,42v-2h-1v-1h-2v-1h-5v1h-2v1h-1v2h-1v5h1v2h1v1h2v1h5v-1h2v-1h1v-2h1v-5H213z M211,46h-1v1h-1v1h-3
			v-1h-1v-1h-1v-3h1v-1h1v-1h3v1h1v1h1V46z"/>
		<polygon fill="#FFFFFF" points="147,46 147,49 146,49 146,50 145,50 145,51 140,51 140,50 139,50 139,49 138,49 138,48 139,48 
			139,47 141,47 141,48 144,48 144,46 142,46 142,45 140,45 140,44 139,44 139,43 138,43 138,40 139,40 139,39 140,39 140,38 
			145,38 145,39 146,39 146,41 145,41 145,42 144,42 144,41 141,41 141,42 142,42 142,43 144,43 144,44 146,44 146,46 		"/>
		<path fill="#FFFFFF" d="M58,34v5h-2v-1h-4v1h-2v1h-1v2h-1v5h1v2h1v1h2v1h4v-1h2v1h3V34H58z M58,46h-1v1h-1v1h-3v-1h-1v-1h-1v-3h1
			v-1h1v-1h3v1h1v1h1V46z"/>
		<polygon fill="#FFFFFF" points="33,34 33,48 32,48 32,49 31,49 31,50 30,50 30,51 25,51 25,50 24,50 24,49 23,49 23,48 22,48 
			22,34 25,34 25,47 26,47 26,48 29,48 29,47 30,47 30,34 		"/>
		<polygon fill="#FFFFFF" points="195,38 195,41 193,41 193,51 190,51 190,41 188,41 188,38 190,38 190,34 193,34 193,38 		"/>
		<path fill="#FFFFFF" d="M75,42v-2h-1v-1h-2v-1h-5v1h-2v1h-1v2h-1v5h1v2h1v1h2v1h5v-1h2v-1h1v-1h-8v-1h-1v-1h10v-4H75z M66,43v-1h1
			v-1h5v1h1v1H66z"/>
		<polygon fill="#FFFFFF" points="226,40 226,51 223,51 223,42 222,42 222,41 220,41 220,42 219,42 219,51 216,51 216,38 219,38 
			219,39 220,39 220,38 224,38 224,39 225,39 225,40 		"/>
		<polygon fill="#FFFFFF" points="184,42 184,41 180,41 180,42 179,42 179,43 178,43 178,46 179,46 179,47 180,47 180,48 184,48 
			184,47 185,47 185,48 187,48 187,49 186,49 186,50 184,50 184,51 179,51 179,50 177,50 177,49 176,49 176,47 175,47 175,42 
			176,42 176,40 177,40 177,39 179,39 179,38 184,38 184,39 186,39 186,40 187,40 187,41 185,41 185,42 		"/>
		<polygon fill="#FFFFFF" points="136,40 136,51 133,51 133,42 132,42 132,41 130,41 130,42 129,42 129,51 126,51 126,38 129,38 
			129,39 130,39 130,38 134,38 134,39 135,39 135,40 		"/>
		<rect x="196" y="38" fill="#FFFFFF" width="3" height="13"/>
		<polygon fill="#FFFFFF" points="174,38 174,48 173,48 173,50 171,50 171,51 167,51 167,50 165,50 165,48 164,48 164,38 167,38 
			167,47 168,47 168,48 170,48 170,47 171,47 171,38 		"/>
		<polygon fill="#FFFFFF" points="163,38 163,40 162,40 162,41 160,41 160,42 159,42 159,51 156,51 156,38 159,38 159,39 160,39 
			160,38 		"/>
		<path fill="#FFFFFF" d="M123,42v-2h-1v-1h-2v-1h-5v1h-2v1h-1v2h-1v5h1v2h1v1h2v1h5v-1h2v-1h1v-2h1v-5H123z M120,46v1h-1v1h-3v-1
			h-1v-1h-1v-3h1v-1h1v-1h3v1h1v1h1v3H120z"/>
		<polygon fill="#FFFFFF" points="85,38 85,40 84,40 84,41 82,41 82,42 81,42 81,51 78,51 78,38 81,38 81,39 82,39 82,38 		"/>
		<polygon fill="#FFFFFF" points="46,40 46,51 43,51 43,42 42,42 42,41 40,41 40,42 39,42 39,51 36,51 36,38 39,38 39,39 40,39 
			40,38 44,38 44,39 45,39 45,40 		"/>
		<polygon fill="#FFFFFF" points="199,34 199,36 198,36 198,37 197,37 197,36 196,36 196,34 197,34 197,33 198,33 198,34 		"/>
		<polygon fill="#FFFFFF" points="155,38 155,41 153,41 153,51 150,51 150,41 148,41 148,38 150,38 150,34 153,34 153,38 		"/>
		<polygon fill="#FFFFFF" points="107,39 107,38 105,38 105,37 100,37 100,38 98,38 98,39 97,39 97,40 96,40 96,45 97,45 97,46 
			98,46 98,47 100,47 100,48 105,48 105,47 107,47 107,46 108,46 108,47 110,47 110,48 109,48 109,49 108,49 108,50 106,50 106,51 
			99,51 99,50 97,50 97,49 96,49 96,48 95,48 95,47 94,47 94,45 93,45 93,40 94,40 94,38 95,38 95,37 96,37 96,36 97,36 97,35 
			99,35 99,34 105,34 105,35 108,35 108,36 109,36 109,37 110,37 110,38 109,38 109,39 		"/>
	</g>
	<g id="stripes">
		<polygon fill="#FFFF00" points="3,84 7,84 7,85 6,85 6,86 5,86 5,87 1,87 1,86 2,86 2,85 3,85 		"/>
		<polygon fill="#FFFF00" points="11,84 15,84 15,85 14,85 14,86 13,86 13,87 9,87 9,86 10,86 10,85 11,85 		"/>
		<polygon fill="#FFFF00" points="19,84 23,84 23,85 22,85 22,86 21,86 21,87 17,87 17,86 18,86 18,85 19,85 		"/>
		<polygon fill="#FFFF00" points="35,84 39,84 39,85 38,85 38,86 37,86 37,87 33,87 33,86 34,86 34,85 35,85 		"/>
		<polygon fill="#FFFF00" points="43,84 47,84 47,85 46,85 46,86 45,86 45,87 41,87 41,86 42,86 42,85 43,85 		"/>
		<polygon fill="#FFFF00" points="67,84 71,84 71,85 70,85 70,86 69,86 69,87 65,87 65,86 66,86 66,85 67,85 		"/>
		<polygon fill="#FFFF00" points="75,84 79,84 79,85 78,85 78,86 77,86 77,87 73,87 73,86 74,86 74,85 75,85 		"/>
		<polygon fill="#FFFF00" points="59,84 63,84 63,85 62,85 62,86 61,86 61,87 57,87 57,86 58,86 58,85 59,85 		"/>
		<polygon fill="#FFFF00" points="27,84 31,84 31,85 30,85 30,86 29,86 29,87 25,87 25,86 26,86 26,85 27,85 		"/>
		<polygon fill="#FFFF00" points="51,84 55,84 55,85 54,85 54,86 53,86 53,87 49,87 49,86 50,86 50,85 51,85 		"/>
		<polygon fill="#FFFF00" points="91,84 95,84 95,85 94,85 94,86 93,86 93,87 89,87 89,86 90,86 90,85 91,85 		"/>
		<polygon fill="#FFFF00" points="115,84 119,84 119,85 118,85 118,86 117,86 117,87 113,87 113,86 114,86 114,85 115,85 		"/>
		<polygon fill="#FFFF00" points="107,84 111,84 111,85 110,85 110,86 109,86 109,87 105,87 105,86 106,86 106,85 107,85 		"/>
		<polygon fill="#FFFF00" points="83,84 87,84 87,85 86,85 86,86 85,86 85,87 81,87 81,86 82,86 82,85 83,85 		"/>
		<polygon fill="#FFFF00" points="99,84 103,84 103,85 102,85 102,86 101,86 101,87 97,87 97,86 98,86 98,85 99,85 		"/>
		<polygon fill="#FFFF00" points="123,84 127,84 127,85 126,85 126,86 125,86 125,87 121,87 121,86 122,86 122,85 123,85 		"/>
		<polygon fill="#FFFF00" points="131,84 135,84 135,85 134,85 134,86 133,86 133,87 129,87 129,86 130,86 130,85 131,85 		"/>
		<polygon fill="#FFFF00" points="147,84 151,84 151,85 150,85 150,86 149,86 149,87 145,87 145,86 146,86 146,85 147,85 		"/>
		<polygon fill="#FFFF00" points="155,84 159,84 159,85 158,85 158,86 157,86 157,87 153,87 153,86 154,86 154,85 155,85 		"/>
		<polygon fill="#FFFF00" points="139,84 143,84 143,85 142,85 142,86 141,86 141,87 137,87 137,86 138,86 138,85 139,85 		"/>
		<polygon fill="#FFFF00" points="163,84 167,84 167,85 166,85 166,86 165,86 165,87 161,87 161,86 162,86 162,85 163,85 		"/>
		<polygon fill="#FFFF00" points="171,84 175,84 175,85 174,85 174,86 173,86 173,87 169,87 169,86 170,86 170,85 171,85 		"/>
		<polygon fill="#FFFF00" points="187,84 191,84 191,85 190,85 190,86 189,86 189,87 185,87 185,86 186,86 186,85 187,85 		"/>
		<polygon fill="#FFFF00" points="179,84 183,84 183,85 182,85 182,86 181,86 181,87 177,87 177,86 178,86 178,85 179,85 		"/>
		<polygon fill="#FFFF00" points="203,84 207,84 207,85 206,85 206,86 205,86 205,87 201,87 201,86 202,86 202,85 203,85 		"/>
		<polygon fill="#FFFF00" points="195,84 199,84 199,85 198,85 198,86 197,86 197,87 193,87 193,86 194,86 194,85 195,85 		"/>
		<polygon fill="#FFFF00" points="211,84 215,84 215,85 214,85 214,86 213,86 213,87 209,87 209,86 210,86 210,85 211,85 		"/>
		<polygon fill="#FFFF00" points="219,84 223,84 223,85 222,85 222,86 221,86 221,87 217,87 217,86 218,86 218,85 219,85 		"/>
		<polygon fill="#FFFF00" points="235,84 239,84 239,85 238,85 238,86 237,86 237,87 233,87 233,86 234,86 234,85 235,85 		"/>
		<polygon fill="#FFFF00" points="247,84 247,85 246,85 246,86 245,86 245,87 241,87 241,86 242,86 242,85 243,85 243,84 		"/>
		<polygon fill="#FFFF00" points="227,84 231,84 231,85 230,85 230,86 229,86 229,87 225,87 225,86 226,86 226,85 227,85 		"/>
		<polygon fill="#FFFF00" points="247,0 247,1 246,1 246,2 245,2 245,3 241,3 241,2 242,2 242,1 243,1 243,0 		"/>
		<polygon fill="#FFFF00" points="239,0 239,1 238,1 238,2 237,2 237,3 233,3 233,2 234,2 234,1 235,1 235,0 		"/>
		<polygon fill="#FFFF00" points="231,0 231,1 230,1 230,2 229,2 229,3 225,3 225,2 226,2 226,1 227,1 227,0 		"/>
		<polygon fill="#FFFF00" points="223,0 223,1 222,1 222,2 221,2 221,3 217,3 217,2 218,2 218,1 219,1 219,0 		"/>
		<polygon fill="#FFFF00" points="215,0 215,1 214,1 214,2 213,2 213,3 209,3 209,2 210,2 210,1 211,1 211,0 		"/>
		<polygon fill="#FFFF00" points="207,0 207,1 206,1 206,2 205,2 205,3 201,3 201,2 202,2 202,1 203,1 203,0 		"/>
		<polygon fill="#FFFF00" points="199,0 199,1 198,1 198,2 197,2 197,3 193,3 193,2 194,2 194,1 195,1 195,0 		"/>
		<polygon fill="#FFFF00" points="191,0 191,1 190,1 190,2 189,2 189,3 185,3 185,2 186,2 186,1 187,1 187,0 		"/>
		<polygon fill="#FFFF00" points="183,0 183,1 182,1 182,2 181,2 181,3 177,3 177,2 178,2 178,1 179,1 179,0 		"/>
		<polygon fill="#FFFF00" points="175,0 175,1 174,1 174,2 173,2 173,3 169,3 169,2 170,2 170,1 171,1 171,0 		"/>
		<polygon fill="#FFFF00" points="167,0 167,1 166,1 166,2 165,2 165,3 161,3 161,2 162,2 162,1 163,1 163,0 		"/>
		<polygon fill="#FFFF00" points="159,0 159,1 158,1 158,2 157,2 157,3 153,3 153,2 154,2 154,1 155,1 155,0 		"/>
		<polygon fill="#FFFF00" points="151,0 151,1 150,1 150,2 149,2 149,3 145,3 145,2 146,2 146,1 147,1 147,0 		"/>
		<polygon fill="#FFFF00" points="143,0 143,1 142,1 142,2 141,2 141,3 137,3 137,2 138,2 138,1 139,1 139,0 		"/>
		<polygon fill="#FFFF00" points="135,0 135,1 134,1 134,2 133,2 133,3 129,3 129,2 130,2 130,1 131,1 131,0 		"/>
		<polygon fill="#FFFF00" points="127,0 127,1 126,1 126,2 125,2 125,3 121,3 121,2 122,2 122,1 123,1 123,0 		"/>
		<polygon fill="#FFFF00" points="119,0 119,1 118,1 118,2 117,2 117,3 113,3 113,2 114,2 114,1 115,1 115,0 		"/>
		<polygon fill="#FFFF00" points="111,0 111,1 110,1 110,2 109,2 109,3 105,3 105,2 106,2 106,1 107,1 107,0 		"/>
		<polygon fill="#FFFF00" points="103,0 103,1 102,1 102,2 101,2 101,3 97,3 97,2 98,2 98,1 99,1 99,0 		"/>
		<polygon fill="#FFFF00" points="95,0 95,1 94,1 94,2 93,2 93,3 89,3 89,2 90,2 90,1 91,1 91,0 		"/>
		<polygon fill="#FFFF00" points="87,0 87,1 86,1 86,2 85,2 85,3 81,3 81,2 82,2 82,1 83,1 83,0 		"/>
		<polygon fill="#FFFF00" points="79,0 79,1 78,1 78,2 77,2 77,3 73,3 73,2 74,2 74,1 75,1 75,0 		"/>
		<polygon fill="#FFFF00" points="71,0 71,1 70,1 70,2 69,2 69,3 65,3 65,2 66,2 66,1 67,1 67,0 		"/>
		<polygon fill="#FFFF00" points="63,0 63,1 62,1 62,2 61,2 61,3 57,3 57,2 58,2 58,1 59,1 59,0 		"/>
		<polygon fill="#FFFF00" points="55,0 55,1 54,1 54,2 53,2 53,3 49,3 49,2 50,2 50,1 51,1 51,0 		"/>
		<polygon fill="#FFFF00" points="47,0 47,1 46,1 46,2 45,2 45,3 41,3 41,2 42,2 42,1 43,1 43,0 		"/>
		<polygon fill="#FFFF00" points="39,0 39,1 38,1 38,2 37,2 37,3 33,3 33,2 34,2 34,1 35,1 35,0 		"/>
		<polygon fill="#FFFF00" points="31,0 31,1 30,1 30,2 29,2 29,3 25,3 25,2 26,2 26,1 27,1 27,0 		"/>
		<polygon fill="#FFFF00" points="23,0 23,1 22,1 22,2 21,2 21,3 17,3 17,2 18,2 18,1 19,1 19,0 		"/>
		<polygon fill="#FFFF00" points="15,0 15,1 14,1 14,2 13,2 13,3 9,3 9,2 10,2 10,1 11,1 11,0 		"/>
		<polygon fill="#FFFF00" points="7,0 7,1 6,1 6,2 5,2 5,3 1,3 1,2 2,2 2,1 3,1 3,0 		"/>
	</g>
	<polygon points="248,0 248,4 0,4 0,0 3,0 3,1 2,1 2,2 1,2 1,3 5,3 5,2 6,2 6,1 7,1 7,0 11,0 11,1 10,1 10,2 9,2 9,3 13,3 13,2 
		14,2 14,1 15,1 15,0 19,0 19,1 18,1 18,2 17,2 17,3 21,3 21,2 22,2 22,1 23,1 23,0 27,0 27,1 26,1 26,2 25,2 25,3 29,3 29,2 30,2 
		30,1 31,1 31,0 35,0 35,1 34,1 34,2 33,2 33,3 37,3 37,2 38,2 38,1 39,1 39,0 43,0 43,1 42,1 42,2 41,2 41,3 45,3 45,2 46,2 46,1 
		47,1 47,0 51,0 51,1 50,1 50,2 49,2 49,3 53,3 53,2 54,2 54,1 55,1 55,0 59,0 59,1 58,1 58,2 57,2 57,3 61,3 61,2 62,2 62,1 63,1 
		63,0 67,0 67,1 66,1 66,2 65,2 65,3 69,3 69,2 70,2 70,1 71,1 71,0 75,0 75,1 74,1 74,2 73,2 73,3 77,3 77,2 78,2 78,1 79,1 79,0 
		83,0 83,1 82,1 82,2 81,2 81,3 85,3 85,2 86,2 86,1 87,1 87,0 91,0 91,1 90,1 90,2 89,2 89,3 93,3 93,2 94,2 94,1 95,1 95,0 99,0 
		99,1 98,1 98,2 97,2 97,3 101,3 101,2 102,2 102,1 103,1 103,0 107,0 107,1 106,1 106,2 105,2 105,3 109,3 109,2 110,2 110,1 
		111,1 111,0 115,0 115,1 114,1 114,2 113,2 113,3 117,3 117,2 118,2 118,1 119,1 119,0 123,0 123,1 122,1 122,2 121,2 121,3 125,3 
		125,2 126,2 126,1 127,1 127,0 131,0 131,1 130,1 130,2 129,2 129,3 133,3 133,2 134,2 134,1 135,1 135,0 139,0 139,1 138,1 138,2 
		137,2 137,3 141,3 141,2 142,2 142,1 143,1 143,0 147,0 147,1 146,1 146,2 145,2 145,3 149,3 149,2 150,2 150,1 151,1 151,0 155,0 
		155,1 154,1 154,2 153,2 153,3 157,3 157,2 158,2 158,1 159,1 159,0 163,0 163,1 162,1 162,2 161,2 161,3 165,3 165,2 166,2 166,1 
		167,1 167,0 171,0 171,1 170,1 170,2 169,2 169,3 173,3 173,2 174,2 174,1 175,1 175,0 179,0 179,1 178,1 178,2 177,2 177,3 181,3 
		181,2 182,2 182,1 183,1 183,0 187,0 187,1 186,1 186,2 185,2 185,3 189,3 189,2 190,2 190,1 191,1 191,0 195,0 195,1 194,1 194,2 
		193,2 193,3 197,3 197,2 198,2 198,1 199,1 199,0 203,0 203,1 202,1 202,2 201,2 201,3 205,3 205,2 206,2 206,1 207,1 207,0 211,0 
		211,1 210,1 210,2 209,2 209,3 213,3 213,2 214,2 214,1 215,1 215,0 219,0 219,1 218,1 218,2 217,2 217,3 221,3 221,2 222,2 222,1 
		223,1 223,0 227,0 227,1 226,1 226,2 225,2 225,3 229,3 229,2 230,2 230,1 231,1 231,0 235,0 235,1 234,1 234,2 233,2 233,3 237,3 
		237,2 238,2 238,1 239,1 239,0 243,0 243,1 242,1 242,2 241,2 241,3 245,3 245,2 246,2 246,1 247,1 247,0 	"/>
</g>
</svg>
